<svg width="30" height="28" viewBox="0 0 30 28" fill="none" xmlns="http://www.w3.org/2000/svg">
<path d="M14.2433 27.3334C12.3882 27.3334 10.645 26.9834 9.01341 26.2834C7.38186 25.5834 5.96264 24.6334 4.75575 23.4334C3.54885 22.2334 2.59339 20.8223 1.88937 19.2001C1.18534 17.5779 0.833332 15.8445 0.833332 14.0001C0.833332 12.1556 1.18534 10.4223 1.88937 8.80008C2.59339 7.17786 3.54885 5.76675 4.75575 4.56675C5.96264 3.36675 7.38186 2.41675 9.01341 1.71675C10.645 1.01675 12.3882 0.666748 14.2433 0.666748C15.5862 0.666748 16.8942 0.861192 18.1672 1.25008C19.4401 1.63897 20.6354 2.21119 21.7529 2.96675C21.9987 3.1223 22.1496 3.33341 22.2055 3.60008C22.2613 3.86675 22.1999 4.11119 22.0211 4.33341C21.8423 4.55564 21.6188 4.67786 21.3506 4.70008C21.0824 4.7223 20.8253 4.65564 20.5795 4.50008C19.6408 3.90008 18.6351 3.44453 17.5623 3.13341C16.4895 2.8223 15.3831 2.66675 14.2433 2.66675C11.0612 2.66675 8.36595 3.76466 6.15749 5.96048C3.94905 8.15633 2.84483 10.8362 2.84483 14.0001C2.84483 17.164 3.95018 19.8438 6.16087 22.0397C8.3716 24.2355 11.0696 25.3334 14.2549 25.3334C14.873 25.3334 15.4837 25.2834 16.0872 25.1834C16.6906 25.0834 17.2829 24.9445 17.864 24.7667C18.1545 24.6779 18.4283 24.6834 18.6853 24.7834C18.9424 24.8834 19.1268 25.0667 19.2385 25.3334C19.3503 25.6001 19.3447 25.8612 19.2217 26.1167C19.0988 26.3723 18.9033 26.5445 18.6351 26.6334C17.9199 26.8779 17.1935 27.0556 16.4559 27.1667C15.7184 27.2779 14.9808 27.3334 14.2433 27.3334ZM23.9655 20.3334H20.9483C20.6633 20.3334 20.4244 20.237 20.2317 20.0442C20.0389 19.8514 19.9425 19.6126 19.9425 19.3276C19.9425 19.0426 20.0389 18.8056 20.2317 18.6167C20.4244 18.4279 20.6633 18.3334 20.9483 18.3334H23.9655V15.3334C23.9655 15.0501 24.0625 14.8126 24.2563 14.6209C24.4503 14.4292 24.6905 14.3334 24.9771 14.3334C25.2638 14.3334 25.5021 14.4292 25.692 14.6209C25.882 14.8126 25.977 15.0501 25.977 15.3334V18.3334H28.9943C29.2792 18.3334 29.5181 18.4298 29.7108 18.6226C29.9036 18.8154 30 19.0543 30 19.3392C30 19.6242 29.9036 19.8612 29.7108 20.0501C29.5181 20.239 29.2792 20.3334 28.9943 20.3334H25.977V23.3334C25.977 23.6167 25.8801 23.8542 25.6862 24.0459C25.4923 24.2376 25.252 24.3334 24.9654 24.3334C24.6788 24.3334 24.4405 24.2376 24.2505 24.0459C24.0605 23.8542 23.9655 23.6167 23.9655 23.3334V20.3334ZM12.2653 17.0334L25.4071 3.96675C25.5983 3.76675 25.8417 3.66675 26.1372 3.66675C26.4327 3.66675 26.6922 3.7723 26.9157 3.98341C27.1392 4.19453 27.251 4.44453 27.251 4.73341C27.251 5.0223 27.1392 5.27786 26.9157 5.50008L12.9693 19.3667C12.7682 19.5667 12.5335 19.6667 12.2653 19.6667C11.9971 19.6667 11.7625 19.5667 11.5613 19.3667L7.47126 15.2667C7.27011 15.0667 7.17513 14.8167 7.1863 14.5167C7.19748 14.2167 7.30184 13.9667 7.49939 13.7667C7.69696 13.5667 7.9484 13.4667 8.2537 13.4667C8.55902 13.4667 8.81226 13.5667 9.01341 13.7667L12.2653 17.0334Z" fill="#3DDB42"/>
</svg>
