<svg width="50" height="50" viewBox="0 0 50 50" fill="none" xmlns="http://www.w3.org/2000/svg">
<g clip-path="url(#clip0_62_898)">
<path d="M46.827 -5H3.173C-1.34082 -5 -5 -1.34082 -5 3.173V46.827C-5 51.3408 -1.34082 55 3.173 55H46.827C51.3408 55 55 51.3408 55 46.827V3.173C55 -1.34082 51.3408 -5 46.827 -5Z" fill="#C6F4C8"/>
<path d="M24.2433 38.3334C22.3882 38.3334 20.645 37.9834 19.0134 37.2834C17.3819 36.5834 15.9626 35.6334 14.7557 34.4334C13.5488 33.2334 12.5934 31.8223 11.8894 30.2001C11.1853 28.5779 10.8333 26.8445 10.8333 25.0001C10.8333 23.1556 11.1853 21.4223 11.8894 19.8001C12.5934 18.1779 13.5488 16.7667 14.7557 15.5667C15.9626 14.3667 17.3819 13.4167 19.0134 12.7167C20.645 12.0167 22.3882 11.6667 24.2433 11.6667C25.5862 11.6667 26.8942 11.8612 28.1672 12.2501C29.4401 12.639 30.6354 13.2112 31.7529 13.9667C31.9987 14.1223 32.1496 14.3334 32.2055 14.6001C32.2613 14.8667 32.1999 15.1112 32.0211 15.3334C31.8423 15.5556 31.6188 15.6779 31.3506 15.7001C31.0824 15.7223 30.8253 15.6556 30.5795 15.5001C29.6408 14.9001 28.6351 14.4445 27.5623 14.1334C26.4895 13.8223 25.3831 13.6667 24.2433 13.6667C21.0612 13.6667 18.366 14.7647 16.1575 16.9605C13.949 19.1563 12.8448 21.8362 12.8448 25.0001C12.8448 28.164 13.9502 30.8438 16.1609 33.0397C18.3716 35.2355 21.0696 36.3334 24.2549 36.3334C24.873 36.3334 25.4837 36.2834 26.0872 36.1834C26.6906 36.0834 27.2829 35.9445 27.864 35.7668C28.1545 35.6779 28.4283 35.6834 28.6853 35.7834C28.9424 35.8834 29.1268 36.0668 29.2385 36.3334C29.3503 36.6001 29.3447 36.8612 29.2217 37.1167C29.0988 37.3723 28.9033 37.5445 28.6351 37.6334C27.9199 37.8779 27.1935 38.0556 26.4559 38.1667C25.7184 38.2779 24.9808 38.3334 24.2433 38.3334ZM33.9655 31.3334H30.9483C30.6633 31.3334 30.4244 31.237 30.2317 31.0443C30.0389 30.8515 29.9425 30.6126 29.9425 30.3276C29.9425 30.0426 30.0389 29.8056 30.2317 29.6167C30.4244 29.4279 30.6633 29.3334 30.9483 29.3334H33.9655V26.3334C33.9655 26.0501 34.0625 25.8126 34.2563 25.6209C34.4503 25.4292 34.6905 25.3334 34.9771 25.3334C35.2638 25.3334 35.5021 25.4292 35.692 25.6209C35.882 25.8126 35.977 26.0501 35.977 26.3334V29.3334H38.9943C39.2792 29.3334 39.5181 29.4298 39.7108 29.6226C39.9036 29.8154 40 30.0543 40 30.3392C40 30.6242 39.9036 30.8612 39.7108 31.0501C39.5181 31.239 39.2792 31.3334 38.9943 31.3334H35.977V34.3334C35.977 34.6168 35.8801 34.8543 35.6862 35.0459C35.4923 35.2376 35.252 35.3334 34.9654 35.3334C34.6788 35.3334 34.4405 35.2376 34.2505 35.0459C34.0605 34.8543 33.9655 34.6168 33.9655 34.3334V31.3334ZM22.2653 28.0334L35.4071 14.9667C35.5983 14.7667 35.8417 14.6667 36.1372 14.6667C36.4327 14.6667 36.6922 14.7723 36.9157 14.9834C37.1392 15.1945 37.251 15.4445 37.251 15.7334C37.251 16.0223 37.1392 16.2779 36.9157 16.5001L22.9693 30.3667C22.7682 30.5667 22.5335 30.6667 22.2653 30.6667C21.9971 30.6667 21.7625 30.5667 21.5613 30.3667L17.4713 26.2667C17.2701 26.0667 17.1751 25.8167 17.1863 25.5167C17.1975 25.2167 17.3018 24.9667 17.4994 24.7667C17.697 24.5667 17.9484 24.4667 18.2537 24.4667C18.559 24.4667 18.8123 24.5667 19.0134 24.7667L22.2653 28.0334Z" fill="#3DDB42"/>
</g>
<defs>
<clipPath id="clip0_62_898">
<rect width="50" height="50" rx="25" fill="white"/>
</clipPath>
</defs>
</svg>
