<svg width="23" height="24" viewBox="0 0 23 24" fill="none" xmlns="http://www.w3.org/2000/svg">
<path d="M0.166672 21.7251V8.75828C0.166672 8.39809 0.247831 8.05686 0.41015 7.73458C0.572491 7.41232 0.796892 7.14692 1.08335 6.93838L9.79167 0.454965C10.1916 0.151655 10.6487 0 11.163 0C11.6772 0 12.1368 0.151655 12.5417 0.454965L21.25 6.93838C21.5365 7.14692 21.7609 7.41232 21.9232 7.73458C22.0855 8.05686 22.1667 8.39809 22.1667 8.75828V21.7251C22.1667 22.3507 21.9423 22.8863 21.4935 23.3318C21.0447 23.7773 20.5052 24 19.875 24H15.0625C14.7379 24 14.4657 23.891 14.2461 23.673C14.0265 23.455 13.9167 23.1848 13.9167 22.8626V15.5829C13.9167 15.2607 13.8069 14.9905 13.5873 14.7725C13.3676 14.5545 13.0955 14.4455 12.7709 14.4455H9.56249C9.23786 14.4455 8.96572 14.5545 8.74609 14.7725C8.52648 14.9905 8.41667 15.2607 8.41667 15.5829V22.8626C8.41667 23.1848 8.30687 23.455 8.08726 23.673C7.86762 23.891 7.59549 24 7.27085 24H2.45832C1.82811 24 1.28861 23.7773 0.839837 23.3318C0.39106 22.8863 0.166672 22.3507 0.166672 21.7251Z" fill="#38C73C"/>
</svg>
