<svg width="19" height="19" viewBox="0 0 19 19" fill="none" xmlns="http://www.w3.org/2000/svg">
<path d="M5.64154 13.4299H1.37386C0.982177 13.4299 0.655287 13.2943 0.393188 13.0232C0.131063 12.7522 0 12.4141 0 12.009V6.99096C0 6.58589 0.131063 6.24783 0.393188 5.97677C0.655287 5.70568 0.982177 5.57014 1.37386 5.57014H5.64154L10.1899 0.866408C10.5542 0.489557 10.9737 0.403399 11.4482 0.607937C11.9227 0.812502 12.16 1.18282 12.16 1.71888V17.2811C12.16 17.8172 11.9227 18.1875 11.4482 18.3921C10.9737 18.5966 10.5542 18.5104 10.1899 18.1336L5.64154 13.4299ZM19 9.5C19 10.4794 18.8032 11.4075 18.4095 12.2842C18.0159 13.1608 17.4849 13.8984 16.8165 14.497C16.6021 14.6441 16.3765 14.6582 16.1398 14.5393C15.903 14.4204 15.7846 14.2239 15.7846 13.9498V4.97158C15.7846 4.69751 15.903 4.50101 16.1398 4.38209C16.3765 4.2632 16.6021 4.27731 16.8165 4.42442C17.4849 5.03911 18.0159 5.79384 18.4095 6.68863C18.8032 7.58344 19 8.52056 19 9.5ZM9.88 4.54833L6.61199 7.92804H2.27997V11.072H6.61199L9.88 14.4517V4.54833Z" fill="#171717"/>
</svg>
