<svg width="18" height="23" viewBox="0 0 18 23" fill="none" xmlns="http://www.w3.org/2000/svg">
<path d="M1.125 19.375C0.80625 19.375 0.539062 19.2672 0.323437 19.0516C0.107812 18.8359 0 18.5688 0 18.25C0 17.9312 0.107812 17.6641 0.323437 17.4484C0.539062 17.2328 0.80625 17.125 1.125 17.125H2.25V9.25C2.25 7.69375 2.71875 6.31094 3.65625 5.10156C4.59375 3.89219 5.8125 3.1 7.3125 2.725V1.9375C7.3125 1.46875 7.47656 1.07031 7.80469 0.742188C8.13281 0.414062 8.53125 0.25 9 0.25C9.46875 0.25 9.86719 0.414062 10.1953 0.742188C10.5234 1.07031 10.6875 1.46875 10.6875 1.9375V2.725C12.1875 3.1 13.4062 3.89219 14.3438 5.10156C15.2812 6.31094 15.75 7.69375 15.75 9.25V17.125H16.875C17.1938 17.125 17.4609 17.2328 17.6766 17.4484C17.8922 17.6641 18 17.9312 18 18.25C18 18.5688 17.8922 18.8359 17.6766 19.0516C17.4609 19.2672 17.1938 19.375 16.875 19.375H1.125ZM9 22.75C8.38125 22.75 7.85156 22.5297 7.41094 22.0891C6.97031 21.6484 6.75 21.1187 6.75 20.5H11.25C11.25 21.1187 11.0297 21.6484 10.5891 22.0891C10.1484 22.5297 9.61875 22.75 9 22.75ZM4.5 17.125H13.5V9.25C13.5 8.0125 13.0594 6.95313 12.1781 6.07188C11.2969 5.19063 10.2375 4.75 9 4.75C7.7625 4.75 6.70313 5.19063 5.82188 6.07188C4.94063 6.95313 4.5 8.0125 4.5 9.25V17.125ZM9 12.625C9.31875 12.625 9.58594 12.5172 9.80156 12.3016C10.0172 12.0859 10.125 11.8188 10.125 11.5V8.125C10.125 7.80625 10.0172 7.53906 9.80156 7.32344C9.58594 7.10781 9.31875 7 9 7C8.68125 7 8.41406 7.10781 8.19844 7.32344C7.98281 7.53906 7.875 7.80625 7.875 8.125V11.5C7.875 11.8188 7.98281 12.0859 8.19844 12.3016C8.41406 12.5172 8.68125 12.625 9 12.625ZM9 16C9.31875 16 9.58594 15.8922 9.80156 15.6766C10.0172 15.4609 10.125 15.1938 10.125 14.875C10.125 14.5562 10.0172 14.2891 9.80156 14.0734C9.58594 13.8578 9.31875 13.75 9 13.75C8.68125 13.75 8.41406 13.8578 8.19844 14.0734C7.98281 14.2891 7.875 14.5562 7.875 14.875C7.875 15.1938 7.98281 15.4609 8.19844 15.6766C8.41406 15.8922 8.68125 16 9 16Z" fill="#1C1B1F"/>
</svg>
