<svg width="22" height="23" viewBox="0 0 22 23" fill="none" xmlns="http://www.w3.org/2000/svg">
<path d="M11 11.1501C9.4875 11.1501 8.2309 10.6396 7.2302 9.61874C6.22952 8.59783 5.72918 7.31586 5.72918 5.77282C5.72918 4.22978 6.22952 2.94782 7.2302 1.92693C8.2309 0.906023 9.4875 0.395569 11 0.395569C12.5125 0.395569 13.7691 0.906023 14.7698 1.92693C15.7705 2.94782 16.2708 4.22978 16.2708 5.77282C16.2708 7.31586 15.7705 8.59783 14.7698 9.61874C13.7691 10.6396 12.5125 11.1501 11 11.1501ZM0 20.0577V18.8887C0 18.0314 0.211979 17.2813 0.635938 16.6384C1.0599 15.9955 1.61181 15.5065 2.29168 15.1713C3.78889 14.4622 5.25173 13.9303 6.6802 13.5757C8.10868 13.2211 9.54862 13.0438 11 13.0438C12.4514 13.0438 13.8875 13.225 15.3083 13.5874C16.7292 13.9498 18.1882 14.4778 19.6854 15.1713C20.3806 15.5065 20.9401 15.9955 21.3641 16.6384C21.788 17.2813 22 18.0314 22 18.8887V20.0577C22 20.7045 21.7766 21.2558 21.3297 21.7117C20.8828 22.1676 20.3424 22.3956 19.7084 22.3956H2.29164C1.65763 22.3956 1.11719 22.1676 0.670312 21.7117C0.223437 21.2558 0 20.7045 0 20.0577Z" fill="#3DDB42"/>
</svg>
