<svg width="17" height="19" viewBox="0 0 17 19" fill="none" xmlns="http://www.w3.org/2000/svg">
<path d="M14.1667 19C13.3796 19 12.7106 18.7229 12.1597 18.1687C11.6088 17.6146 11.3333 16.9417 11.3333 16.15C11.3333 16.0392 11.3412 15.9244 11.3569 15.8056C11.3727 15.6869 11.3963 15.58 11.4278 15.485L4.76944 11.59C4.50185 11.8275 4.20278 12.0135 3.87222 12.1481C3.54167 12.2827 3.19537 12.35 2.83333 12.35C2.0463 12.35 1.37731 12.0729 0.826389 11.5188C0.275463 10.9646 0 10.2917 0 9.5C0 8.70833 0.275463 8.03542 0.826389 7.48125C1.37731 6.92708 2.0463 6.65 2.83333 6.65C3.19537 6.65 3.54167 6.71729 3.87222 6.85187C4.20278 6.98646 4.50185 7.1725 4.76944 7.41L11.4278 3.515C11.3963 3.42 11.3727 3.31312 11.3569 3.19437C11.3412 3.07562 11.3333 2.96083 11.3333 2.85C11.3333 2.05833 11.6088 1.38542 12.1597 0.83125C12.7106 0.277083 13.3796 0 14.1667 0C14.9537 0 15.6227 0.277083 16.1736 0.83125C16.7245 1.38542 17 2.05833 17 2.85C17 3.64167 16.7245 4.31458 16.1736 4.86875C15.6227 5.42292 14.9537 5.7 14.1667 5.7C13.8046 5.7 13.4583 5.63271 13.1278 5.49813C12.7972 5.36354 12.4981 5.1775 12.2306 4.94L5.57222 8.835C5.6037 8.93 5.62731 9.03687 5.64306 9.15562C5.6588 9.27437 5.66667 9.38917 5.66667 9.5C5.66667 9.61083 5.6588 9.72563 5.64306 9.84437C5.62731 9.96313 5.6037 10.07 5.57222 10.165L12.2306 14.06C12.4981 13.8225 12.7972 13.6365 13.1278 13.5019C13.4583 13.3673 13.8046 13.3 14.1667 13.3C14.9537 13.3 15.6227 13.5771 16.1736 14.1312C16.7245 14.6854 17 15.3583 17 16.15C17 16.9417 16.7245 17.6146 16.1736 18.1687C15.6227 18.7229 14.9537 19 14.1667 19ZM14.1667 3.8C14.4343 3.8 14.6586 3.70896 14.8396 3.52688C15.0206 3.34479 15.1111 3.11917 15.1111 2.85C15.1111 2.58083 15.0206 2.35521 14.8396 2.17313C14.6586 1.99104 14.4343 1.9 14.1667 1.9C13.8991 1.9 13.6748 1.99104 13.4937 2.17313C13.3127 2.35521 13.2222 2.58083 13.2222 2.85C13.2222 3.11917 13.3127 3.34479 13.4937 3.52688C13.6748 3.70896 13.8991 3.8 14.1667 3.8ZM2.83333 10.45C3.10093 10.45 3.32523 10.359 3.50625 10.1769C3.68727 9.99479 3.77778 9.76917 3.77778 9.5C3.77778 9.23083 3.68727 9.00521 3.50625 8.82312C3.32523 8.64104 3.10093 8.55 2.83333 8.55C2.56574 8.55 2.34144 8.64104 2.16042 8.82312C1.9794 9.00521 1.88889 9.23083 1.88889 9.5C1.88889 9.76917 1.9794 9.99479 2.16042 10.1769C2.34144 10.359 2.56574 10.45 2.83333 10.45ZM14.1667 17.1C14.4343 17.1 14.6586 17.009 14.8396 16.8269C15.0206 16.6448 15.1111 16.4192 15.1111 16.15C15.1111 15.8808 15.0206 15.6552 14.8396 15.4731C14.6586 15.291 14.4343 15.2 14.1667 15.2C13.8991 15.2 13.6748 15.291 13.4937 15.4731C13.3127 15.6552 13.2222 15.8808 13.2222 16.15C13.2222 16.4192 13.3127 16.6448 13.4937 16.8269C13.6748 17.009 13.8991 17.1 14.1667 17.1Z" fill="#171717"/>
</svg>
