<svg width="24" height="25" viewBox="0 0 24 25" fill="none" xmlns="http://www.w3.org/2000/svg">
<path d="M6 14.4875C5.45334 14.4875 4.98568 14.293 4.59634 13.9037C4.207 13.5143 4.0125 13.0467 4.0125 12.5C4.0125 11.9533 4.207 11.4857 4.59634 11.0963C4.98568 10.707 5.45334 10.5125 6 10.5125C6.54666 10.5125 7.01432 10.707 7.40366 11.0963C7.793 11.4857 7.9875 11.9533 7.9875 12.5C7.9875 13.0467 7.793 13.5143 7.40366 13.9037C7.01432 14.293 6.54666 14.4875 6 14.4875ZM12 14.4875C11.4533 14.4875 10.9857 14.293 10.5963 13.9037C10.207 13.5143 10.0125 13.0467 10.0125 12.5C10.0125 11.9533 10.207 11.4857 10.5963 11.0963C10.9857 10.707 11.4533 10.5125 12 10.5125C12.5467 10.5125 13.0143 10.707 13.4037 11.0963C13.793 11.4857 13.9875 11.9533 13.9875 12.5C13.9875 13.0467 13.793 13.5143 13.4037 13.9037C13.0143 14.293 12.5467 14.4875 12 14.4875ZM18 14.4875C17.4533 14.4875 16.9857 14.293 16.5963 13.9037C16.207 13.5143 16.0125 13.0467 16.0125 12.5C16.0125 11.9533 16.207 11.4857 16.5963 11.0963C16.9857 10.707 17.4533 10.5125 18 10.5125C18.5467 10.5125 19.0143 10.707 19.4037 11.0963C19.793 11.4857 19.9875 11.9533 19.9875 12.5C19.9875 13.0467 19.793 13.5143 19.4037 13.9037C19.0143 14.293 18.5467 14.4875 18 14.4875Z" fill="#1C1B1F" stroke="#171717" stroke-width="0.025"/>
</svg>
