<svg width="20" height="21" viewBox="0 0 20 21" fill="none" xmlns="http://www.w3.org/2000/svg">
<path d="M12.1295 20.5H8.37955C8.12955 20.5 7.91288 20.4167 7.72955 20.25C7.54622 20.0833 7.43788 19.875 7.40455 19.625L7.10455 17.3C6.88788 17.2167 6.68372 17.1167 6.49205 17C6.30038 16.8833 6.11288 16.7583 5.92955 16.625L3.75455 17.525C3.52122 17.6083 3.28788 17.6167 3.05455 17.55C2.82122 17.4833 2.63788 17.3417 2.50455 17.125L0.654549 13.9C0.521215 13.6833 0.479549 13.45 0.529549 13.2C0.579549 12.95 0.704549 12.75 0.904549 12.6L2.77955 11.175C2.76288 11.0583 2.75455 10.9458 2.75455 10.8375V10.1625C2.75455 10.0542 2.76288 9.94167 2.77955 9.825L0.904549 8.4C0.704549 8.25 0.579549 8.05 0.529549 7.8C0.479549 7.55 0.521215 7.31667 0.654549 7.1L2.50455 3.875C2.62122 3.64167 2.80038 3.49583 3.04205 3.4375C3.28372 3.37917 3.52122 3.39167 3.75455 3.475L5.92955 4.375C6.11288 4.24167 6.30455 4.11667 6.50455 4C6.70455 3.88333 6.90455 3.78333 7.10455 3.7L7.40455 1.375C7.43788 1.125 7.54622 0.916667 7.72955 0.75C7.91288 0.583333 8.12955 0.5 8.37955 0.5H12.1295C12.3795 0.5 12.5962 0.583333 12.7795 0.75C12.9629 0.916667 13.0712 1.125 13.1045 1.375L13.4045 3.7C13.6212 3.78333 13.8254 3.88333 14.017 4C14.2087 4.11667 14.3962 4.24167 14.5795 4.375L16.7545 3.475C16.9879 3.39167 17.2212 3.38333 17.4545 3.45C17.6879 3.51667 17.8712 3.65833 18.0045 3.875L19.8545 7.1C19.9879 7.31667 20.0295 7.55 19.9795 7.8C19.9296 8.05 19.8046 8.25 19.6045 8.4L17.7295 9.825C17.7462 9.94167 17.7545 10.0542 17.7545 10.1625V10.8375C17.7545 10.9458 17.7379 11.0583 17.7045 11.175L19.5795 12.6C19.7796 12.75 19.9046 12.95 19.9545 13.2C20.0045 13.45 19.9629 13.6833 19.8295 13.9L17.9795 17.1C17.8462 17.3167 17.6587 17.4625 17.417 17.5375C17.1754 17.6125 16.9379 17.6083 16.7045 17.525L14.5795 16.625C14.3962 16.7583 14.2045 16.8833 14.0045 17C13.8045 17.1167 13.6045 17.2167 13.4045 17.3L13.1045 19.625C13.0712 19.875 12.9629 20.0833 12.7795 20.25C12.5962 20.4167 12.3795 20.5 12.1295 20.5ZM10.3045 14C11.2712 14 12.0962 13.6583 12.7795 12.975C13.4629 12.2917 13.8045 11.4667 13.8045 10.5C13.8045 9.53333 13.4629 8.70833 12.7795 8.025C12.0962 7.34167 11.2712 7 10.3045 7C9.32122 7 8.49205 7.34167 7.81705 8.025C7.14205 8.70833 6.80455 9.53333 6.80455 10.5C6.80455 11.4667 7.14205 12.2917 7.81705 12.975C8.49205 13.6583 9.32122 14 10.3045 14ZM10.3045 12C9.88788 12 9.53372 11.8542 9.24205 11.5625C8.95038 11.2708 8.80455 10.9167 8.80455 10.5C8.80455 10.0833 8.95038 9.72917 9.24205 9.4375C9.53372 9.14583 9.88788 9 10.3045 9C10.7212 9 11.0754 9.14583 11.367 9.4375C11.6587 9.72917 11.8045 10.0833 11.8045 10.5C11.8045 10.9167 11.6587 11.2708 11.367 11.5625C11.0754 11.8542 10.7212 12 10.3045 12ZM9.25455 18.5H11.2295L11.5795 15.85C12.0962 15.7167 12.5754 15.5208 13.017 15.2625C13.4587 15.0042 13.8629 14.6917 14.2295 14.325L16.7045 15.35L17.6795 13.65L15.5295 12.025C15.6129 11.7917 15.6712 11.5458 15.7045 11.2875C15.7379 11.0292 15.7545 10.7667 15.7545 10.5C15.7545 10.2333 15.7379 9.97083 15.7045 9.7125C15.6712 9.45417 15.6129 9.20833 15.5295 8.975L17.6795 7.35L16.7045 5.65L14.2295 6.7C13.8629 6.31667 13.4587 5.99583 13.017 5.7375C12.5754 5.47917 12.0962 5.28333 11.5795 5.15L11.2545 2.5H9.27955L8.92955 5.15C8.41288 5.28333 7.93372 5.47917 7.49205 5.7375C7.05038 5.99583 6.64622 6.30833 6.27955 6.675L3.80455 5.65L2.82955 7.35L4.97955 8.95C4.89622 9.2 4.83788 9.45 4.80455 9.7C4.77122 9.95 4.75455 10.2167 4.75455 10.5C4.75455 10.7667 4.77122 11.025 4.80455 11.275C4.83788 11.525 4.89622 11.775 4.97955 12.025L2.82955 13.65L3.80455 15.35L6.27955 14.3C6.64622 14.6833 7.05038 15.0042 7.49205 15.2625C7.93372 15.5208 8.41288 15.7167 8.92955 15.85L9.25455 18.5Z" fill="#1C1B1F"/>
</svg>
