<svg width="24" height="22" viewBox="0 0 24 22" fill="none" xmlns="http://www.w3.org/2000/svg">
<path d="M11.992 0.602577C5.76954 0.602577 0.751465 4.617 0.751465 9.49056C0.751465 12.654 2.83899 15.4239 5.97027 17.0056L4.91045 20.9639C4.89047 21.0233 4.88739 21.0869 4.90157 21.1479C4.91575 21.2089 4.94663 21.2647 4.99074 21.3091C5.05506 21.3658 5.13782 21.3972 5.22358 21.3974C5.29468 21.3917 5.36215 21.3636 5.41627 21.3172L9.9767 18.2421C10.6499 18.335 11.3285 18.3832 12.008 18.3866C18.2224 18.3866 23.2485 14.3721 23.2485 9.49056C23.2485 4.60897 18.2064 0.602577 11.992 0.602577Z" fill="#392020"/>
<path d="M5.17205 8.05672H4.02537C3.88325 8.06118 3.74288 8.0218 3.62066 7.9432C3.5664 7.90642 3.51975 7.85788 3.48364 7.80067C3.44752 7.74346 3.42273 7.6788 3.41081 7.61073C3.40717 7.56758 3.40717 7.52423 3.41081 7.48108C3.40725 7.40033 3.42174 7.3198 3.45305 7.2464C3.48436 7.17301 3.53157 7.10889 3.59068 7.05944C3.72134 6.95706 3.87905 6.90298 4.04036 6.90533H7.49539C7.63865 6.89988 7.77997 6.94237 7.9001 7.02697C7.95565 7.06213 8.00328 7.11023 8.03957 7.16772C8.07586 7.22521 8.0999 7.29067 8.10995 7.35943C8.11361 7.39988 8.11361 7.44063 8.10995 7.48108C8.11349 7.56299 8.09903 7.64461 8.06777 7.71931C8.0365 7.79401 7.98932 7.85957 7.93008 7.91073C7.80261 8.01298 7.64642 8.06457 7.4879 8.05672H6.37869V12.3216C6.3832 12.4125 6.3702 12.5033 6.34052 12.5885C6.31085 12.6736 6.26515 12.7512 6.20631 12.8162C6.1499 12.8784 6.08208 12.9271 6.00721 12.9592C5.93235 12.9913 5.85209 13.0061 5.77162 13.0027C5.63087 13.007 5.4931 12.9583 5.3819 12.8649C5.27604 12.7736 5.20419 12.644 5.17955 12.5C5.17214 12.4408 5.17214 12.3808 5.17955 12.3216L5.17205 8.05672Z" fill="#FEE500"/>
<path d="M8.44076 7.22156C8.47372 7.08813 8.55113 6.97259 8.6581 6.89721C8.77208 6.82732 8.90195 6.79361 9.03283 6.79992H9.31763C9.45651 6.79454 9.59403 6.83103 9.71484 6.90533C9.84287 6.99847 9.93383 7.14028 9.96967 7.30262L11.4686 11.8837C11.5075 12.0033 11.54 12.1251 11.566 12.2487C11.5686 12.3 11.5686 12.3514 11.566 12.4027C11.5686 12.4817 11.5551 12.5604 11.5266 12.6332C11.4982 12.706 11.4553 12.7713 11.4011 12.8243C11.3486 12.8825 11.2856 12.9284 11.216 12.9591C11.1463 12.9898 11.0716 13.0046 10.9964 13.0027C10.8808 13.0151 10.7647 12.9851 10.6668 12.9174C10.569 12.8498 10.495 12.7484 10.4568 12.6297L10.142 11.6324H8.17095L7.85618 12.6297C7.81895 12.7508 7.74407 12.8541 7.6443 12.9221C7.54454 12.9901 7.42606 13.0186 7.30906 13.0027C7.18233 13.0063 7.05819 12.9634 6.95681 12.881C6.85804 12.796 6.7914 12.675 6.76945 12.5405C6.76547 12.4947 6.76547 12.4485 6.76945 12.4027C6.75658 12.3222 6.75658 12.24 6.76945 12.1595C6.76945 12.0703 6.82191 11.9729 6.85189 11.8837L8.44076 7.22156ZM9.19022 8.28377L8.47823 10.7162H9.89471L9.19022 8.28377Z" fill="#FEE500"/>
<path d="M11.7377 7.48117C11.7301 7.29921 11.7893 7.1214 11.9026 6.98658C11.9601 6.92378 12.0292 6.87469 12.1054 6.84257C12.1815 6.81045 12.2631 6.79592 12.3447 6.80001C12.4851 6.79824 12.6221 6.84673 12.7345 6.93789C12.8386 7.03299 12.9077 7.16529 12.9293 7.31083C12.9367 7.3673 12.9367 7.42469 12.9293 7.48117V11.7461H14.9904C15.1332 11.744 15.2736 11.7862 15.3951 11.8676C15.4496 11.904 15.4965 11.9525 15.5327 12.0097C15.5688 12.067 15.5934 12.1318 15.6049 12.2001C15.6049 12.2001 15.6049 12.2812 15.6049 12.3217C15.6085 12.4024 15.594 12.4829 15.5627 12.5563C15.5314 12.6297 15.4842 12.6939 15.425 12.7433C15.2944 12.8457 15.1367 12.8997 14.9754 12.8973H12.4422C12.2808 12.9086 12.1205 12.8631 11.985 12.7677C11.8638 12.6697 11.7831 12.5241 11.7602 12.3623C11.7547 12.2732 11.7547 12.1837 11.7602 12.0946L11.7377 7.48117Z" fill="#FEE500"/>
<path d="M15.7399 7.4812C15.7355 7.29977 15.7943 7.12319 15.9048 6.98662C16.0171 6.8762 16.1612 6.81099 16.3128 6.80213C16.4643 6.79327 16.6141 6.84124 16.7367 6.93792C16.8431 7.0322 16.9149 7.16443 16.9391 7.31087C16.9428 7.36755 16.9428 7.42452 16.9391 7.4812V9.46766L18.8352 7.10005C18.9083 7.01928 18.9859 6.94353 19.0676 6.87309C19.1445 6.8235 19.2328 6.79815 19.3224 6.80005C19.4534 6.79927 19.5815 6.84172 19.6896 6.92169C19.7406 6.95881 19.7841 7.00671 19.8176 7.06244C19.8511 7.11816 19.8738 7.18059 19.8845 7.24604C19.8875 7.26209 19.8875 7.27868 19.8845 7.29473C19.8808 7.31345 19.8808 7.33273 19.8845 7.35145C19.8842 7.43676 19.8636 7.5206 19.8245 7.59473C19.7848 7.67322 19.737 7.74657 19.6821 7.81357L18.438 9.2893L19.9369 11.8028V11.8839C20.0148 12.0001 20.0754 12.1287 20.1168 12.265V12.3055C20.1255 12.3994 20.113 12.4943 20.0803 12.5818C20.0477 12.6694 19.9959 12.747 19.9294 12.8082C19.8044 12.9104 19.6515 12.9647 19.4948 12.9623C19.3906 12.967 19.2872 12.9417 19.195 12.8893C19.0952 12.8168 19.0129 12.7195 18.9551 12.6055L17.5611 10.1731L16.8941 10.9272V12.2812C16.8986 12.4626 16.8397 12.6392 16.7292 12.7757C16.67 12.8384 16.5996 12.8873 16.5222 12.9194C16.4449 12.9514 16.3623 12.9661 16.2796 12.9623C16.1413 12.9654 16.0062 12.9167 15.8973 12.8244C15.7915 12.7331 15.7196 12.6036 15.695 12.4596C15.6876 12.4004 15.6876 12.3403 15.695 12.2812L15.7399 7.4812Z" fill="#FEE500"/>
</svg>
