<svg width="171" height="132" viewBox="0 0 171 132" fill="none" xmlns="http://www.w3.org/2000/svg">
<path d="M93.4817 116.14L49.6467 130.278C38.7628 133.794 27.1682 127.548 23.7646 116.365L1.06169 41.7854C-2.34189 30.5648 3.71722 18.6336 14.6012 15.1178L58.4362 0.979906C69.3201 -2.53587 80.9147 3.71024 84.3183 14.8934L107.021 89.4727C110.425 100.693 104.366 112.625 93.4817 116.14Z" fill="#F0FFD1"/>
<path fill-rule="evenodd" clip-rule="evenodd" d="M49.6467 130.278L93.4817 116.14C104.366 112.625 110.425 100.693 107.021 89.4727L84.3183 14.8934C80.9147 3.71024 69.3201 -2.53587 58.4362 0.979906L14.6012 15.1178C3.71722 18.6336 -2.34189 30.5648 1.06169 41.7854L23.7646 116.365C27.1682 127.548 38.7628 133.794 49.6467 130.278ZM3.93208 40.9131C3.93223 40.9136 3.93237 40.9141 3.93252 40.9145L26.6346 115.491C29.5701 125.136 39.5014 130.403 48.7246 127.423L48.7259 127.423L92.5596 113.286C92.56 113.285 92.5604 113.285 92.5609 113.285C101.823 110.293 107.098 100.065 104.151 90.3452C104.151 90.3447 104.151 90.3441 104.15 90.3436L81.4483 15.7671C78.5128 6.12179 68.5815 0.855351 59.3583 3.83466L59.357 3.83508L15.5233 17.9726C15.5229 17.9727 15.5225 17.9728 15.522 17.973C6.26013 20.9656 0.984657 31.1936 3.93208 40.9131Z" fill="url(#paint0_linear_133_18730)"/>
<path d="M120.336 130.465L76.6509 115.841C65.8043 112.213 59.8574 100.207 63.4106 89.0239L86.899 14.7064C90.4148 3.52324 102.084 -2.57327 112.931 1.05471L156.616 15.6788C167.463 19.3068 173.41 31.3128 169.856 42.496L146.368 116.814C142.852 127.997 131.183 134.093 120.336 130.465Z" fill="url(#paint1_linear_133_18730)"/>
<path fill-rule="evenodd" clip-rule="evenodd" d="M76.6509 115.841L120.336 130.465C131.183 134.093 142.852 127.997 146.368 116.814L169.856 42.496C173.41 31.3128 167.463 19.3068 156.616 15.6788L112.931 1.05471C102.084 -2.57327 90.4148 3.52324 86.899 14.7064L63.4106 89.0239C59.8574 100.207 65.8043 112.213 76.6509 115.841ZM111.979 3.89978L155.664 18.5237C164.897 21.6119 170.073 31.9065 166.997 41.5876L143.507 115.909L143.506 115.914C140.475 125.555 130.485 130.696 121.289 127.62C121.288 127.62 121.289 127.62 121.289 127.62L77.6032 112.996C68.3703 109.908 63.1938 99.6135 66.2698 89.9324L89.7595 15.6105L89.7609 15.6061C92.7919 5.965 102.782 0.824106 111.979 3.89978C111.979 3.89986 111.979 3.8997 111.979 3.89978Z" fill="url(#paint2_linear_133_18730)"/>
<path d="M110.425 106.827L114.688 73.951H96.4364L122.842 24.6927L118.541 57.569H136.83L110.425 106.827Z" fill="white"/>
<defs>
<linearGradient id="paint0_linear_133_18730" x1="8.12074" y1="119.82" x2="190.167" y2="56.0871" gradientUnits="userSpaceOnUse">
<stop stop-color="white"/>
<stop offset="1" stop-color="white" stop-opacity="0"/>
</linearGradient>
<linearGradient id="paint1_linear_133_18730" x1="19.5343" y1="52.1371" x2="135.116" y2="111.345" gradientUnits="userSpaceOnUse">
<stop stop-color="#ADE538"/>
<stop offset="0.18" stop-color="#8DEA39"/>
<stop offset="0.41" stop-color="#6AEF3A"/>
<stop offset="0.64" stop-color="#50F33B"/>
<stop offset="0.84" stop-color="#41F63B"/>
<stop offset="1" stop-color="#3CF73C"/>
</linearGradient>
<linearGradient id="paint2_linear_133_18730" x1="8.12074" y1="119.82" x2="190.167" y2="56.0871" gradientUnits="userSpaceOnUse">
<stop stop-color="white" stop-opacity="0.8"/>
<stop offset="1" stop-color="white"/>
</linearGradient>
</defs>
</svg>
