<svg width="12" height="12" viewBox="0 0 12 12" fill="none" xmlns="http://www.w3.org/2000/svg">
<path d="M1.09091 11.5716C0.790909 11.5716 0.534091 11.4625 0.320455 11.2442C0.106818 11.026 0 10.7637 0 10.4573V3.77157C0 3.46514 0.106818 3.20282 0.320455 2.9846C0.534091 2.76639 0.790909 2.65728 1.09091 2.65728H2.80909L3.49091 1.90514C3.59091 1.79371 3.71136 1.7055 3.85227 1.6405C3.99318 1.5755 4.14091 1.543 4.29545 1.543H6.54545C6.7 1.543 6.82955 1.59639 6.93409 1.70318C7.03864 1.80996 7.09091 1.94228 7.09091 2.10014C7.09091 2.258 7.03864 2.39032 6.93409 2.4971C6.82955 2.60389 6.7 2.65728 6.54545 2.65728H4.29545L3.3 3.77157H1.09091V10.4573H9.81818V6.00014C9.81818 5.84228 9.87045 5.70996 9.975 5.60318C10.0795 5.49639 10.2091 5.443 10.3636 5.443C10.5182 5.443 10.6477 5.49639 10.7523 5.60318C10.8568 5.70996 10.9091 5.84228 10.9091 6.00014V10.4573C10.9091 10.7637 10.8023 11.026 10.5886 11.2442C10.375 11.4625 10.1182 11.5716 9.81818 11.5716H1.09091ZM9.81818 2.65728H9.27273C9.11818 2.65728 8.98864 2.60389 8.88409 2.4971C8.77955 2.39032 8.72727 2.258 8.72727 2.10014C8.72727 1.94228 8.77955 1.80996 8.88409 1.70318C8.98864 1.59639 9.11818 1.543 9.27273 1.543H9.81818V0.985854C9.81818 0.827997 9.87045 0.695675 9.975 0.58889C10.0795 0.482104 10.2091 0.428711 10.3636 0.428711C10.5182 0.428711 10.6477 0.482104 10.7523 0.58889C10.8568 0.695675 10.9091 0.827997 10.9091 0.985854V1.543H11.4545C11.6091 1.543 11.7386 1.59639 11.8432 1.70318C11.9477 1.80996 12 1.94228 12 2.10014C12 2.258 11.9477 2.39032 11.8432 2.4971C11.7386 2.60389 11.6091 2.65728 11.4545 2.65728H10.9091V3.21443C10.9091 3.37228 10.8568 3.5046 10.7523 3.61139C10.6477 3.71818 10.5182 3.77157 10.3636 3.77157C10.2091 3.77157 10.0795 3.71818 9.975 3.61139C9.87045 3.5046 9.81818 3.37228 9.81818 3.21443V2.65728ZM5.45455 9.62157C6.13636 9.62157 6.71591 9.37782 7.19318 8.89032C7.67045 8.40282 7.90909 7.81085 7.90909 7.11443C7.90909 6.418 7.67045 5.82603 7.19318 5.33853C6.71591 4.85103 6.13636 4.60728 5.45455 4.60728C4.77273 4.60728 4.19318 4.85103 3.71591 5.33853C3.23864 5.82603 3 6.418 3 7.11443C3 7.81085 3.23864 8.40282 3.71591 8.89032C4.19318 9.37782 4.77273 9.62157 5.45455 9.62157ZM5.45455 8.50728C5.07273 8.50728 4.75 8.37264 4.48636 8.10335C4.22273 7.83407 4.09091 7.50443 4.09091 7.11443C4.09091 6.72443 4.22273 6.39478 4.48636 6.1255C4.75 5.85621 5.07273 5.72157 5.45455 5.72157C5.83636 5.72157 6.15909 5.85621 6.42273 6.1255C6.68636 6.39478 6.81818 6.72443 6.81818 7.11443C6.81818 7.50443 6.68636 7.83407 6.42273 8.10335C6.15909 8.37264 5.83636 8.50728 5.45455 8.50728Z" fill="white"/>
</svg>
