<svg width="10" height="15" viewBox="0 0 10 15" fill="none" xmlns="http://www.w3.org/2000/svg">
<path d="M2.9398 9.73677H0.726287C0.440673 9.73677 0.229437 9.60131 0.0925797 9.33039C-0.0442773 9.05947 -0.0294015 8.79799 0.137207 8.54597L5.47463 0.4183C5.59364 0.241885 5.74834 0.119025 5.93875 0.0497193C6.12916 -0.0195864 6.32552 -0.0164361 6.52783 0.0591701C6.73015 0.134776 6.8789 0.267087 6.97411 0.456103C7.06931 0.645119 7.10501 0.846735 7.08121 1.06095L6.50998 5.95646H9.27688C9.58629 5.95646 9.80348 6.10137 9.92843 6.3912C10.0534 6.68102 10.0147 6.95194 9.8124 7.20396L3.93945 14.6512C3.80855 14.815 3.64789 14.9221 3.45748 14.9725C3.26707 15.0229 3.08261 15.004 2.9041 14.9158C2.72559 14.8276 2.58576 14.6921 2.4846 14.5094C2.38345 14.3267 2.34477 14.1282 2.36857 13.914L2.9398 9.73677Z" fill="#3DDB42"/>
</svg>
