<svg width="23" height="24" viewBox="0 0 23 24" fill="none" xmlns="http://www.w3.org/2000/svg">
<path d="M2.45815 21.7251H7.27068V14.4455C7.27068 14.1232 7.38049 13.8531 7.6001 13.6351C7.81971 13.4171 8.09184 13.3081 8.4165 13.3081H13.9165C14.2412 13.3081 14.5133 13.4171 14.7329 13.6351C14.9525 13.8531 15.0623 14.1232 15.0623 14.4455V21.7251H19.8749V8.75828L11.1665 2.27486L2.45815 8.75828V21.7251ZM0.166504 21.7251V8.75828C0.166504 8.39809 0.247663 8.05686 0.409982 7.73458C0.572323 7.41232 0.796724 7.14692 1.08318 6.93838L9.7915 0.454965C10.1915 0.151655 10.6486 0 11.1628 0C11.6771 0 12.1366 0.151655 12.5415 0.454965L21.2498 6.93838C21.5363 7.14692 21.7607 7.41232 21.923 7.73458C22.0853 8.05686 22.1665 8.39809 22.1665 8.75828V21.7251C22.1665 22.3507 21.9421 22.8863 21.4933 23.3318C21.0446 23.7773 20.5051 24 19.8749 24H13.9165C13.5918 24 13.3197 23.891 13.1001 23.673C12.8805 23.455 12.7707 23.1848 12.7707 22.8626V15.5829H9.56233V22.8626C9.56233 23.1848 9.45252 23.455 9.23291 23.673C9.0133 23.891 8.74116 24 8.4165 24H2.45815C1.82794 24 1.28845 23.7773 0.839669 23.3318C0.390892 22.8863 0.166504 22.3507 0.166504 21.7251Z" fill="#B7B7B7"/>
</svg>
