<svg width="42" height="39" viewBox="0 0 42 39" fill="none" xmlns="http://www.w3.org/2000/svg">
<rect width="42" height="39" rx="19.5" fill="#C6F4C8"/>
<mask id="mask0_172_19846" style="mask-type:alpha" maskUnits="userSpaceOnUse" x="9" y="7" width="24" height="25">
<rect x="9" y="7.5" width="24" height="24" fill="#D9D9D9"/>
</mask>
<g mask="url(#mask0_172_19846)">
<path d="M14 26.5H15.4L24.025 17.875L22.625 16.475L14 25.1V26.5ZM28.3 16.425L24.05 12.225L25.45 10.825C25.8333 10.4417 26.3042 10.25 26.8625 10.25C27.4208 10.25 27.8917 10.4417 28.275 10.825L29.675 12.225C30.0583 12.6083 30.2583 13.0708 30.275 13.6125C30.2917 14.1542 30.1083 14.6167 29.725 15L28.3 16.425ZM13 28.5C12.7167 28.5 12.4792 28.4042 12.2875 28.2125C12.0958 28.0208 12 27.7833 12 27.5V24.675C12 24.5417 12.025 24.4125 12.075 24.2875C12.125 24.1625 12.2 24.05 12.3 23.95L22.6 13.65L26.85 17.9L16.55 28.2C16.45 28.3 16.3375 28.375 16.2125 28.425C16.0875 28.475 15.9583 28.5 15.825 28.5H13Z" fill="#3DDB42"/>
</g>
</svg>
