<svg width="22" height="22" viewBox="0 0 22 22" fill="none" xmlns="http://www.w3.org/2000/svg">
<path d="M11 10.7545C9.4875 10.7545 8.2309 10.2441 7.2302 9.22317C6.22952 8.20226 5.72918 6.92029 5.72918 5.37725C5.72918 3.83421 6.22952 2.55225 7.2302 1.53136C8.2309 0.510454 9.4875 0 11 0C12.5125 0 13.7691 0.510454 14.7698 1.53136C15.7705 2.55225 16.2708 3.83421 16.2708 5.37725C16.2708 6.92029 15.7705 8.20226 14.7698 9.22317C13.7691 10.2441 12.5125 10.7545 11 10.7545ZM0 19.6621V18.4931C0 17.6359 0.211979 16.8858 0.635938 16.2428C1.0599 15.5999 1.61181 15.1109 2.29168 14.7758C3.78889 14.0666 5.25173 13.5347 6.6802 13.1801C8.10868 12.8256 9.54862 12.6483 11 12.6483C12.4514 12.6483 13.8875 12.8295 15.3083 13.1918C16.7292 13.5542 18.1876 14.0837 19.6836 14.7803C20.3833 15.1174 20.9443 15.6061 21.3666 16.2466C21.7889 16.887 22 17.6359 22 18.4931V19.6621C22 20.305 21.7756 20.8554 21.3268 21.3132C20.8781 21.7711 20.3386 22 19.7084 22H2.29164C1.66144 22 1.12194 21.7711 0.673165 21.3132C0.224388 20.8554 0 20.305 0 19.6621ZM2.29164 19.6621H19.7084V18.4931C19.7084 18.158 19.6148 17.8424 19.4276 17.5462C19.2405 17.2501 19.0056 17.028 18.7229 16.8799C17.3326 16.1863 16.0226 15.6973 14.7927 15.4129C13.5629 15.1284 12.2986 14.9862 11 14.9862C9.70138 14.9862 8.42951 15.1284 7.18438 15.4129C5.93924 15.6973 4.62918 16.1863 3.25418 16.8799C2.97152 17.028 2.74044 17.2501 2.56094 17.5462C2.38141 17.8424 2.29164 18.158 2.29164 18.4931V19.6621ZM11 8.41658C11.8479 8.41658 12.5564 8.12629 13.1255 7.54571C13.6946 6.96511 13.9792 6.24229 13.9792 5.37725C13.9792 4.51221 13.6946 3.7894 13.1255 3.20882C12.5564 2.62822 11.8479 2.33792 11 2.33792C10.1521 2.33792 9.44358 2.62822 8.87449 3.20882C8.30538 3.7894 8.02082 4.51221 8.02082 5.37725C8.02082 6.24229 8.30538 6.96511 8.87449 7.54571C9.44358 8.12629 10.1521 8.41658 11 8.41658Z" fill="#B7B7B7"/>
</svg>
