<svg width="19" height="25" viewBox="0 0 19 25" fill="none" xmlns="http://www.w3.org/2000/svg">
<path d="M5.58562 16.228H1.37995C0.837278 16.228 0.43593 16.0022 0.175902 15.5506C-0.0841268 15.0991 -0.0558629 14.6633 0.260693 14.2433L10.4018 0.697167C10.6279 0.403142 10.9219 0.198375 11.2836 0.0828656C11.6454 -0.032644 12.0185 -0.0273936 12.4029 0.0986169C12.7873 0.224627 13.0699 0.445146 13.2508 0.760172C13.4317 1.0752 13.4995 1.41123 13.4543 1.76826L12.369 9.92743H17.6261C18.214 9.92743 18.6266 10.169 18.864 10.652C19.1014 11.135 19.028 11.5866 18.6436 12.0066L7.48496 24.4186C7.23624 24.6917 6.93099 24.8702 6.56921 24.9542C6.20743 25.0382 5.85696 25.0067 5.51779 24.8597C5.17862 24.7127 4.91294 24.4869 4.72074 24.1824C4.52855 23.8778 4.45506 23.5471 4.50029 23.19L5.58562 16.228Z" fill="#3DDB42"/>
</svg>
