<svg width="143" height="147" viewBox="0 0 143 147" fill="none" xmlns="http://www.w3.org/2000/svg">
<g filter="url(#filter0_b_133_18418)">
<path d="M77.1943 91.1369L43.065 102.231C34.5909 104.99 25.5635 100.089 22.9136 91.313L5.23739 32.7895C2.58742 23.9846 7.30495 14.622 15.779 11.8632L49.9083 0.768945C58.3824 -1.98993 67.4098 2.91148 70.0598 11.6871L87.7359 70.2105C90.3859 79.0154 85.6684 88.378 77.1943 91.1369Z" fill="#F0FFD1"/>
<path d="M42.678 101.042L42.6786 101.042L76.8073 89.9483C84.6016 87.4107 89.003 78.76 86.5393 70.5719L42.678 101.042ZM42.678 101.042C34.905 103.573 26.5683 99.0917 24.1102 90.9516L24.1102 90.9515L6.43436 32.4293C3.96998 24.241 8.37117 15.5898 16.1655 13.0519C16.1656 13.0519 16.1658 13.0518 16.166 13.0517L50.2948 1.95772L50.2953 1.95754C58.0683 -0.573089 66.4051 3.90836 68.8631 12.0484L68.8632 12.0485L86.539 70.5707L42.678 101.042Z" stroke="url(#paint0_linear_133_18418)" stroke-width="2.5"/>
</g>
<path d="M65.1914 89.5402L65.1911 89.5401C57.3805 86.924 53.0486 78.234 55.6297 70.0993L55.6302 70.0975L74.0018 11.8891L74.0023 11.8873C76.5508 3.76979 84.9788 -0.605122 92.7735 2.00568L126.942 13.4598L126.942 13.4599C134.753 16.076 139.085 24.766 136.504 32.9007L136.503 32.9026L118.132 91.1109L118.131 91.1127C115.583 99.2301 107.155 103.605 99.3601 100.994C99.36 100.994 99.3599 100.994 99.3598 100.994L65.1914 89.5402Z" fill="url(#paint1_linear_133_18418)" stroke="url(#paint2_linear_133_18418)" stroke-width="2.5"/>
<path d="M90.6769 84.1913L94.0716 58.0204H79.54L100.563 18.8087L97.1387 44.9796H111.7L90.6769 84.1913Z" fill="white"/>
<path d="M4.72287 141C3.67754 141 2.93087 140.795 2.48287 140.384C2.03487 139.973 1.81087 139.385 1.81087 138.62C1.81087 138.247 1.83887 137.612 1.89487 136.716C1.95087 135.801 2.02554 134.765 2.11887 133.608C2.21221 132.451 2.30554 131.228 2.39887 129.94C2.49221 128.652 2.58554 127.439 2.67887 126.3C2.77221 125.161 2.84687 124.163 2.90287 123.304C2.95887 122.445 2.98687 121.857 2.98687 121.54C2.98687 121.26 3.13621 121.12 3.43487 121.12H4.97487C6.11354 121.12 6.87887 121.363 7.27087 121.848C7.66287 122.333 7.85887 123.052 7.85887 124.004C7.85887 124.097 7.84021 124.396 7.80287 124.9C7.78421 125.404 7.74687 126.039 7.69087 126.804C7.63487 127.569 7.56954 128.428 7.49487 129.38C7.43887 130.313 7.37354 131.275 7.29887 132.264C7.24287 133.253 7.17754 134.224 7.10287 135.176C7.04687 136.109 6.99087 136.959 6.93487 137.724C6.87887 138.489 6.83221 139.133 6.79487 139.656C6.75754 140.16 6.72954 140.468 6.71087 140.58C6.69221 140.729 6.65487 140.841 6.59887 140.916C6.54287 140.972 6.43087 141 6.26287 141H4.72287ZM24.6912 137.696C24.2245 138.536 23.6552 139.161 22.9832 139.572C22.3112 139.964 21.4712 140.16 20.4632 140.16C19.6979 140.16 18.9979 140.039 18.3632 139.796C17.7285 139.553 17.1872 139.171 16.7392 138.648C16.2912 138.125 15.9365 137.472 15.6752 136.688C15.4325 135.885 15.3112 134.933 15.3112 133.832C15.3112 132.936 15.4045 131.993 15.5912 131.004C15.7779 129.996 16.1139 129.072 16.5992 128.232C17.1032 127.392 17.7845 126.701 18.6432 126.16C19.5019 125.6 20.6032 125.32 21.9472 125.32C22.5072 125.32 22.9832 125.385 23.3752 125.516C23.7859 125.628 24.1312 125.787 24.4112 125.992C24.7099 126.197 24.9432 126.44 25.1112 126.72C25.2979 127 25.4379 127.299 25.5312 127.616C25.5312 127.635 25.5312 127.569 25.5312 127.42C25.5499 127.252 25.5685 127.065 25.5872 126.86C25.6059 126.655 25.6152 126.459 25.6152 126.272C25.6339 126.067 25.6432 125.936 25.6432 125.88C25.6619 125.693 25.7832 125.6 26.0072 125.6H27.2952C28.2659 125.6 28.9659 125.805 29.3952 126.216C29.8432 126.608 30.0672 127.364 30.0672 128.484C30.0672 128.633 30.0579 128.979 30.0392 129.52C30.0205 130.043 29.9832 130.677 29.9272 131.424C29.8899 132.171 29.8339 133.001 29.7592 133.916C29.6845 134.812 29.6005 135.717 29.5072 136.632C29.4139 137.547 29.3112 138.424 29.1992 139.264C29.0872 140.104 28.9659 140.841 28.8352 141.476C28.7045 142.111 28.4805 142.727 28.1632 143.324C27.8459 143.921 27.3979 144.453 26.8192 144.92C26.2405 145.387 25.4939 145.76 24.5792 146.04C23.6832 146.32 22.5819 146.46 21.2752 146.46C20.2859 146.46 19.4179 146.367 18.6712 146.18C17.9432 145.993 17.3365 145.741 16.8512 145.424C16.3659 145.125 15.9925 144.78 15.7312 144.388C15.4885 143.996 15.3672 143.604 15.3672 143.212C15.3672 142.857 15.4419 142.549 15.5912 142.288C15.7405 142.027 15.9365 141.812 16.1792 141.644C16.4219 141.476 16.6832 141.345 16.9632 141.252C17.2619 141.177 17.5419 141.14 17.8032 141.14C18.1205 141.14 18.3539 141.233 18.5032 141.42C18.6525 141.607 18.8205 141.812 19.0072 142.036C19.1939 142.279 19.4552 142.493 19.7912 142.68C20.1272 142.867 20.6499 142.96 21.3592 142.96C22.5912 142.96 23.4499 142.503 23.9352 141.588C24.4392 140.692 24.6912 139.395 24.6912 137.696ZM22.3392 136.436C23.0112 136.436 23.5339 136.277 23.9072 135.96C24.2992 135.643 24.5979 135.26 24.8032 134.812C25.0085 134.364 25.1392 133.897 25.1952 133.412C25.2512 132.927 25.2792 132.507 25.2792 132.152C25.2792 131.032 25.1019 130.239 24.7472 129.772C24.4112 129.287 23.8979 129.044 23.2072 129.044C22.5165 129.044 21.9752 129.231 21.5832 129.604C21.1912 129.977 20.8925 130.425 20.6872 130.948C20.5005 131.452 20.3792 131.965 20.3232 132.488C20.2672 132.992 20.2392 133.384 20.2392 133.664C20.2392 134.597 20.3979 135.297 20.7152 135.764C21.0325 136.212 21.5739 136.436 22.3392 136.436ZM38.407 141.28C37.119 141.28 36.0457 141.103 35.187 140.748C34.347 140.375 33.675 139.871 33.171 139.236C32.667 138.601 32.3123 137.864 32.107 137.024C31.9017 136.165 31.799 135.251 31.799 134.28C31.799 133.16 31.9297 132.068 32.191 131.004C32.471 129.921 32.9377 128.96 33.591 128.12C34.2443 127.28 35.103 126.608 36.167 126.104C37.2497 125.581 38.5937 125.32 40.199 125.32C42.551 125.32 44.231 125.899 45.239 127.056C46.2657 128.195 46.779 129.8 46.779 131.872C46.779 132.451 46.7323 133.095 46.639 133.804C46.5643 134.495 46.4057 135.185 46.163 135.876C45.939 136.567 45.6217 137.239 45.211 137.892C44.819 138.545 44.315 139.124 43.699 139.628C43.083 140.132 42.3363 140.533 41.459 140.832C40.6003 141.131 39.583 141.28 38.407 141.28ZM39.723 129.044C39.0137 129.044 38.4443 129.231 38.015 129.604C37.6043 129.959 37.287 130.397 37.063 130.92C36.8577 131.424 36.7177 131.965 36.643 132.544C36.587 133.104 36.559 133.58 36.559 133.972C36.559 135.204 36.755 136.109 37.147 136.688C37.539 137.267 38.099 137.556 38.827 137.556C39.4803 137.556 40.0123 137.351 40.423 136.94C40.8523 136.529 41.179 136.035 41.403 135.456C41.6457 134.877 41.8043 134.271 41.879 133.636C41.9723 133.001 42.019 132.469 42.019 132.04C42.019 131.107 41.8417 130.379 41.487 129.856C41.151 129.315 40.563 129.044 39.723 129.044ZM58.913 135.96C58.857 136.819 58.7917 137.64 58.717 138.424C58.6423 139.189 58.5863 139.861 58.549 140.44C58.5303 140.664 58.4837 140.813 58.409 140.888C58.3343 140.963 58.1757 141 57.933 141H56.925C56.3463 141 55.8703 140.944 55.497 140.832C55.1423 140.701 54.853 140.524 54.629 140.3C54.4237 140.076 54.2743 139.805 54.181 139.488C54.1063 139.152 54.069 138.769 54.069 138.34C54.069 138.06 54.0783 137.668 54.097 137.164C54.1343 136.641 54.1903 135.932 54.265 135.036C54.3397 134.121 54.4237 132.973 54.517 131.592C54.629 130.192 54.7597 128.465 54.909 126.412C54.9277 126.001 54.9743 125.759 55.049 125.684C55.105 125.628 55.2543 125.6 55.497 125.6H56.589C57.149 125.6 57.6063 125.665 57.961 125.796C58.3157 125.927 58.605 126.095 58.829 126.3C59.053 126.505 59.2117 126.748 59.305 127.028C59.3983 127.308 59.4543 127.597 59.473 127.896C60.0143 126.888 60.6303 126.207 61.321 125.852C62.0117 125.497 62.8237 125.32 63.757 125.32C64.261 125.32 64.7463 125.367 65.213 125.46C65.6797 125.553 66.0997 125.712 66.473 125.936C66.8463 126.16 67.1637 126.459 67.425 126.832C67.6863 127.187 67.873 127.644 67.985 128.204C68.5637 127.121 69.1983 126.375 69.889 125.964C70.5797 125.535 71.4477 125.32 72.493 125.32C73.0717 125.32 73.6223 125.385 74.145 125.516C74.6863 125.628 75.153 125.833 75.545 126.132C75.937 126.431 76.245 126.841 76.469 127.364C76.7117 127.868 76.833 128.503 76.833 129.268C76.833 129.847 76.805 130.556 76.749 131.396C76.693 132.236 76.6277 133.151 76.553 134.14C76.4783 135.111 76.3943 136.119 76.301 137.164C76.2077 138.191 76.133 139.18 76.077 140.132C76.0583 140.337 76.0397 140.496 76.021 140.608C76.0023 140.72 75.965 140.804 75.909 140.86C75.8717 140.916 75.8063 140.953 75.713 140.972C75.6197 140.991 75.489 141 75.321 141H74.425C73.8277 141 73.3423 140.944 72.969 140.832C72.5957 140.72 72.3063 140.561 72.101 140.356C71.8957 140.151 71.7463 139.899 71.653 139.6C71.5783 139.283 71.541 138.928 71.541 138.536C71.541 138.293 71.5503 137.948 71.569 137.5C71.6063 137.052 71.6437 136.567 71.681 136.044C71.737 135.521 71.7837 134.98 71.821 134.42C71.877 133.86 71.9237 133.347 71.961 132.88C72.017 132.395 72.0543 131.975 72.073 131.62C72.1103 131.265 72.129 131.032 72.129 130.92C72.129 130.435 72.0263 130.005 71.821 129.632C71.6343 129.259 71.261 129.072 70.701 129.072C70.2157 129.072 69.7957 129.231 69.441 129.548C69.0863 129.865 68.7877 130.304 68.545 130.864C68.3023 131.424 68.1063 132.087 67.957 132.852C67.8077 133.617 67.705 134.448 67.649 135.344C67.6117 135.923 67.565 136.585 67.509 137.332C67.453 138.079 67.3877 139.012 67.313 140.132C67.2943 140.337 67.2757 140.496 67.257 140.608C67.2383 140.72 67.201 140.804 67.145 140.86C67.1077 140.916 67.0423 140.953 66.949 140.972C66.8557 140.991 66.725 141 66.557 141H65.661C65.0637 141 64.5783 140.944 64.205 140.832C63.8317 140.72 63.5423 140.561 63.337 140.356C63.1317 140.151 62.9823 139.899 62.889 139.6C62.8143 139.283 62.777 138.928 62.777 138.536C62.777 138.163 62.805 137.621 62.861 136.912C62.9357 136.184 63.001 135.437 63.057 134.672C63.1317 133.888 63.197 133.151 63.253 132.46C63.3277 131.751 63.365 131.237 63.365 130.92C63.365 130.435 63.2623 130.005 63.057 129.632C62.8703 129.259 62.497 129.072 61.937 129.072C61.433 129.072 61.0037 129.259 60.649 129.632C60.2943 130.005 59.9957 130.509 59.753 131.144C59.529 131.76 59.3423 132.488 59.193 133.328C59.0623 134.168 58.969 135.045 58.913 135.96ZM85.1986 141.28C83.9106 141.28 82.8373 141.103 81.9786 140.748C81.1386 140.375 80.4666 139.871 79.9626 139.236C79.4586 138.601 79.104 137.864 78.8986 137.024C78.6933 136.165 78.5906 135.251 78.5906 134.28C78.5906 133.16 78.7213 132.068 78.9826 131.004C79.2626 129.921 79.7293 128.96 80.3826 128.12C81.036 127.28 81.8946 126.608 82.9586 126.104C84.0413 125.581 85.3853 125.32 86.9906 125.32C89.3426 125.32 91.0226 125.899 92.0306 127.056C93.0573 128.195 93.5706 129.8 93.5706 131.872C93.5706 132.451 93.524 133.095 93.4306 133.804C93.356 134.495 93.1973 135.185 92.9546 135.876C92.7306 136.567 92.4133 137.239 92.0026 137.892C91.6106 138.545 91.1066 139.124 90.4906 139.628C89.8746 140.132 89.128 140.533 88.2506 140.832C87.392 141.131 86.3746 141.28 85.1986 141.28ZM86.5146 129.044C85.8053 129.044 85.236 129.231 84.8066 129.604C84.396 129.959 84.0786 130.397 83.8546 130.92C83.6493 131.424 83.5093 131.965 83.4346 132.544C83.3786 133.104 83.3506 133.58 83.3506 133.972C83.3506 135.204 83.5466 136.109 83.9386 136.688C84.3306 137.267 84.8906 137.556 85.6186 137.556C86.272 137.556 86.804 137.351 87.2146 136.94C87.644 136.529 87.9706 136.035 88.1946 135.456C88.4373 134.877 88.596 134.271 88.6706 133.636C88.764 133.001 88.8106 132.469 88.8106 132.04C88.8106 131.107 88.6333 130.379 88.2786 129.856C87.9426 129.315 87.3546 129.044 86.5146 129.044ZM104.801 138.536C104.801 138.125 104.829 137.593 104.885 136.94C104.96 136.268 105.025 135.568 105.081 134.84C105.156 134.093 105.221 133.375 105.277 132.684C105.352 131.993 105.389 131.415 105.389 130.948C105.389 130.463 105.268 130.033 105.025 129.66C104.801 129.268 104.353 129.072 103.681 129.072C103.028 129.072 102.486 129.231 102.057 129.548C101.628 129.865 101.264 130.444 100.965 131.284C100.685 132.124 100.452 133.281 100.265 134.756C100.078 136.231 99.901 138.125 99.733 140.44C99.7143 140.664 99.6677 140.813 99.593 140.888C99.5183 140.963 99.3597 141 99.117 141H98.109C97.5303 141 97.0543 140.944 96.681 140.832C96.3263 140.701 96.037 140.524 95.813 140.3C95.6077 140.076 95.4583 139.805 95.365 139.488C95.2903 139.152 95.253 138.769 95.253 138.34C95.253 138.06 95.2623 137.668 95.281 137.164C95.3183 136.641 95.3743 135.932 95.449 135.036C95.5237 134.121 95.6077 132.973 95.701 131.592C95.813 130.192 95.9437 128.465 96.093 126.412C96.1117 126.001 96.1583 125.759 96.233 125.684C96.289 125.628 96.4383 125.6 96.681 125.6H97.773C98.333 125.6 98.7903 125.665 99.145 125.796C99.5183 125.927 99.817 126.104 100.041 126.328C100.265 126.533 100.424 126.785 100.517 127.084C100.61 127.364 100.666 127.653 100.685 127.952C101.264 126.963 101.926 126.281 102.673 125.908C103.42 125.516 104.353 125.32 105.473 125.32C106.257 125.32 106.938 125.404 107.517 125.572C108.096 125.74 108.572 126.029 108.945 126.44C109.337 126.832 109.626 127.355 109.813 128.008C110 128.643 110.093 129.436 110.093 130.388C110.093 130.687 110.074 131.116 110.037 131.676C110 132.236 109.953 132.852 109.897 133.524C109.841 134.177 109.776 134.868 109.701 135.596C109.645 136.305 109.589 136.968 109.533 137.584C109.477 138.2 109.43 138.741 109.393 139.208C109.356 139.675 109.337 139.983 109.337 140.132C109.337 140.543 109.29 140.795 109.197 140.888C109.104 140.963 108.898 141 108.581 141H107.685C107.088 141 106.602 140.944 106.229 140.832C105.856 140.72 105.566 140.561 105.361 140.356C105.156 140.151 105.006 139.899 104.913 139.6C104.838 139.283 104.801 138.928 104.801 138.536ZM118.649 141.28C117.828 141.28 117.006 141.177 116.185 140.972C115.382 140.767 114.654 140.412 114.001 139.908C113.366 139.404 112.844 138.732 112.433 137.892C112.022 137.052 111.817 135.997 111.817 134.728C111.817 134.261 111.854 133.701 111.929 133.048C112.004 132.395 112.144 131.723 112.349 131.032C112.573 130.341 112.872 129.66 113.245 128.988C113.637 128.297 114.141 127.681 114.757 127.14C115.373 126.599 116.12 126.16 116.997 125.824C117.874 125.488 118.92 125.32 120.133 125.32C121.104 125.32 121.925 125.432 122.597 125.656C123.269 125.88 123.81 126.188 124.221 126.58C124.632 126.953 124.93 127.392 125.117 127.896C125.304 128.4 125.397 128.941 125.397 129.52C125.397 130.379 125.22 131.107 124.865 131.704C124.529 132.301 124.081 132.805 123.521 133.216C122.98 133.608 122.373 133.916 121.701 134.14C121.029 134.364 120.366 134.541 119.713 134.672C119.06 134.784 118.453 134.859 117.893 134.896C117.352 134.915 116.932 134.924 116.633 134.924C116.633 135.279 116.68 135.633 116.773 135.988C116.885 136.324 117.044 136.623 117.249 136.884C117.454 137.145 117.725 137.36 118.061 137.528C118.397 137.696 118.808 137.78 119.293 137.78C119.778 137.78 120.152 137.705 120.413 137.556C120.693 137.388 120.917 137.211 121.085 137.024C121.253 136.819 121.393 136.641 121.505 136.492C121.636 136.324 121.804 136.24 122.009 136.24C122.102 136.24 122.261 136.268 122.485 136.324C122.728 136.361 122.97 136.455 123.213 136.604C123.456 136.753 123.67 136.959 123.857 137.22C124.044 137.481 124.137 137.817 124.137 138.228C124.137 138.769 123.969 139.236 123.633 139.628C123.297 140.02 122.858 140.337 122.317 140.58C121.794 140.823 121.206 141 120.553 141.112C119.9 141.224 119.265 141.28 118.649 141.28ZM119.181 129.044C118.77 129.044 118.416 129.165 118.117 129.408C117.837 129.632 117.594 129.921 117.389 130.276C117.202 130.631 117.053 131.023 116.941 131.452C116.848 131.881 116.773 132.292 116.717 132.684C117.874 132.665 118.808 132.469 119.517 132.096C120.245 131.723 120.609 131.191 120.609 130.5C120.609 130.127 120.488 129.791 120.245 129.492C120.021 129.193 119.666 129.044 119.181 129.044ZM132.023 128.176C132.023 128.605 131.995 129.119 131.939 129.716C131.883 130.295 131.818 130.883 131.743 131.48C131.687 132.059 131.631 132.609 131.575 133.132C131.519 133.636 131.491 134.028 131.491 134.308C131.491 135.017 131.659 135.549 131.995 135.904C132.35 136.24 132.779 136.408 133.283 136.408C134.161 136.408 134.861 135.951 135.383 135.036C135.906 134.121 136.233 132.908 136.363 131.396L136.811 126.16C136.83 125.955 136.895 125.815 137.007 125.74C137.138 125.647 137.278 125.6 137.427 125.6H138.435C138.827 125.6 139.191 125.637 139.527 125.712C139.882 125.768 140.19 125.889 140.451 126.076C140.713 126.244 140.918 126.477 141.067 126.776C141.217 127.075 141.291 127.457 141.291 127.924C141.291 128.111 141.273 128.465 141.235 128.988C141.217 129.492 141.17 130.229 141.095 131.2C141.039 132.152 140.955 133.365 140.843 134.84C140.731 136.296 140.601 138.079 140.451 140.188C140.358 141.42 140.078 142.437 139.611 143.24C139.163 144.061 138.594 144.705 137.903 145.172C137.213 145.657 136.438 145.993 135.579 146.18C134.721 146.367 133.843 146.46 132.947 146.46C131.995 146.46 131.118 146.376 130.315 146.208C129.531 146.04 128.85 145.807 128.271 145.508C127.693 145.209 127.235 144.864 126.899 144.472C126.582 144.08 126.423 143.66 126.423 143.212C126.423 142.857 126.498 142.549 126.647 142.288C126.815 142.027 127.03 141.812 127.291 141.644C127.553 141.476 127.851 141.345 128.187 141.252C128.542 141.177 128.906 141.14 129.279 141.14C129.466 141.14 129.597 141.233 129.671 141.42C129.765 141.607 129.895 141.812 130.063 142.036C130.25 142.279 130.539 142.493 130.931 142.68C131.323 142.867 131.911 142.96 132.695 142.96C133.386 142.96 133.946 142.792 134.375 142.456C134.805 142.12 135.131 141.691 135.355 141.168C135.598 140.645 135.757 140.076 135.831 139.46C135.906 138.844 135.943 138.256 135.943 137.696C135.645 138.219 135.309 138.648 134.935 138.984C134.581 139.301 134.207 139.553 133.815 139.74C133.423 139.908 133.031 140.02 132.639 140.076C132.247 140.132 131.874 140.16 131.519 140.16C130.829 140.16 130.194 140.067 129.615 139.88C129.055 139.693 128.57 139.395 128.159 138.984C127.749 138.555 127.431 138.004 127.207 137.332C126.983 136.66 126.871 135.848 126.871 134.896C126.871 134.541 126.89 134.075 126.927 133.496C126.965 132.899 127.011 132.236 127.067 131.508C127.123 130.761 127.179 129.959 127.235 129.1C127.31 128.241 127.385 127.364 127.459 126.468C127.497 125.889 127.758 125.6 128.243 125.6H129.139C129.737 125.6 130.222 125.656 130.595 125.768C130.969 125.88 131.258 126.048 131.463 126.272C131.687 126.477 131.837 126.748 131.911 127.084C131.986 127.401 132.023 127.765 132.023 128.176Z" fill="#3DDB42"/>
<defs>
<filter id="filter0_b_133_18418" x="-29.36" y="-33.86" width="151.693" height="170.72" filterUnits="userSpaceOnUse" color-interpolation-filters="sRGB">
<feFlood flood-opacity="0" result="BackgroundImageFix"/>
<feGaussianBlur in="BackgroundImageFix" stdDeviation="16.93"/>
<feComposite in2="SourceAlpha" operator="in" result="effect1_backgroundBlur_133_18418"/>
<feBlend mode="normal" in="SourceGraphic" in2="effect1_backgroundBlur_133_18418" result="shape"/>
</filter>
<linearGradient id="paint0_linear_133_18418" x1="8.43687" y1="93.842" x2="104.295" y2="72.772" gradientUnits="userSpaceOnUse">
<stop stop-color="white"/>
<stop offset="1" stop-color="white" stop-opacity="0"/>
</linearGradient>
<linearGradient id="paint1_linear_133_18418" x1="63.2842" y1="40.8335" x2="128.867" y2="62.1512" gradientUnits="userSpaceOnUse">
<stop stop-color="#ADE538"/>
<stop offset="0.18" stop-color="#8DEA39"/>
<stop offset="0.41" stop-color="#6AEF3A"/>
<stop offset="0.64" stop-color="#50F33B"/>
<stop offset="0.84" stop-color="#41F63B"/>
<stop offset="1" stop-color="#3CF73C"/>
</linearGradient>
<linearGradient id="paint2_linear_133_18418" x1="57.6121" y1="93.842" x2="154.395" y2="72.3425" gradientUnits="userSpaceOnUse">
<stop stop-color="white" stop-opacity="0.8"/>
<stop offset="1" stop-color="white"/>
</linearGradient>
</defs>
</svg>
