<svg width="60" height="60" viewBox="0 0 60 60" fill="none" xmlns="http://www.w3.org/2000/svg">
<g clip-path="url(#clip0_208_23413)">
<path d="M51.827 0H8.173C3.65918 0 0 3.65918 0 8.173V51.827C0 56.3408 3.65918 60 8.173 60H51.827C56.3408 60 60 56.3408 60 51.827V8.173C60 3.65918 56.3408 0 51.827 0Z" fill="#EDFBED"/>
<path d="M32.2737 42.5096L21.4553 45.9988C18.7691 46.8665 15.9076 45.325 15.0676 42.565L9.46452 24.1588C8.62452 21.3896 10.1199 18.445 12.8061 17.5773L23.6245 14.088C26.3107 13.2203 29.1722 14.7619 30.0122 17.5219L35.6153 35.928C36.4553 38.6973 34.9599 41.6419 32.2737 42.5096Z" fill="#C6F4C8"/>
<path fill-rule="evenodd" clip-rule="evenodd" d="M21.4553 45.9988L32.2737 42.5096C34.9599 41.6419 36.4553 38.6973 35.6153 35.928L30.0122 17.5219C29.1722 14.7619 26.3107 13.2203 23.6245 14.088L12.8061 17.5773C10.1199 18.445 8.62452 21.3896 9.46452 24.1588L15.0676 42.565C15.9076 45.325 18.7691 46.8665 21.4553 45.9988ZM10.3478 23.8909L15.9507 42.2961C16.6466 44.5829 18.9964 45.823 21.1715 45.1204L31.99 41.6312C34.1775 40.9246 35.4319 38.5036 34.732 36.196L29.1291 17.7907C28.4332 15.5039 26.0834 14.2638 23.9083 14.9664L13.0898 18.4556C10.9027 19.1624 9.64822 21.5835 10.3478 23.8909Z" fill="url(#paint0_linear_208_23413)"/>
<path d="M38.9014 46.045L28.1199 42.4357C25.443 41.5403 23.9753 38.5773 24.8522 35.8173L30.6491 17.4757C31.5168 14.7157 34.3968 13.2111 37.0737 14.1065L47.8553 17.7157C50.5322 18.6111 51.9999 21.5742 51.123 24.3342L45.326 42.6757C44.4583 45.4357 41.5783 46.9403 38.9014 46.045Z" fill="#84E787"/>
<path fill-rule="evenodd" clip-rule="evenodd" d="M28.1199 42.4357L38.9014 46.045C41.5783 46.9403 44.4583 45.4357 45.326 42.6757L51.123 24.3342C51.9999 21.5742 50.5322 18.6111 47.8553 17.7157L37.0737 14.1065C34.3968 13.2111 31.5168 14.7157 30.6491 17.4757L24.8522 35.8173C23.9753 38.5773 25.443 41.5403 28.1199 42.4357ZM36.7809 14.9819L47.5622 18.5911C49.7427 19.3204 50.9733 21.7569 50.2432 24.0547L44.4455 42.3989C43.7269 44.6845 41.3635 45.8952 39.1942 45.1696L28.4129 41.5604C26.2325 40.8311 25.0019 38.3946 25.7319 36.0968L31.5293 17.7539L31.5297 17.7526C32.2482 15.467 34.6117 14.2565 36.7809 14.9819Z" fill="url(#paint1_linear_208_23413)"/>
<path d="M36.4553 40.2112L37.5076 32.0973H33.003L39.5199 19.9404L38.4584 28.0542H42.9722L36.4553 40.2112Z" fill="white"/>
</g>
<defs>
<linearGradient id="paint0_linear_208_23413" x1="11.2067" y1="43.4176" x2="56.1357" y2="27.6885" gradientUnits="userSpaceOnUse">
<stop stop-color="white"/>
<stop offset="1" stop-color="white" stop-opacity="0"/>
</linearGradient>
<linearGradient id="paint1_linear_208_23413" x1="11.2067" y1="43.4176" x2="56.1357" y2="27.6885" gradientUnits="userSpaceOnUse">
<stop stop-color="white" stop-opacity="0.8"/>
<stop offset="1" stop-color="white"/>
</linearGradient>
<clipPath id="clip0_208_23413">
<rect width="60" height="60" rx="30" fill="white"/>
</clipPath>
</defs>
</svg>
