<svg width="22" height="22" viewBox="0 0 22 22" fill="none" xmlns="http://www.w3.org/2000/svg">
<g clip-path="url(#clip0_80_12557)">
<path d="M19.1206 16.621C18.8162 17.3241 18.456 17.9713 18.0386 18.5663C17.4696 19.3775 17.0038 19.939 16.6448 20.2508C16.0883 20.7626 15.492 21.0247 14.8535 21.0396C14.3951 21.0396 13.8423 20.9092 13.1988 20.6446C12.5532 20.3813 11.9599 20.2508 11.4174 20.2508C10.8485 20.2508 10.2383 20.3813 9.58559 20.6446C8.93192 20.9092 8.40534 21.0471 8.00272 21.0608C7.39042 21.0869 6.78011 20.8173 6.17091 20.2508C5.78208 19.9117 5.29575 19.3303 4.71313 18.5067C4.08803 17.6272 3.57412 16.6073 3.1715 15.4446C2.74032 14.1887 2.52417 12.9725 2.52417 11.7951C2.52417 10.4464 2.8156 9.28316 3.39933 8.30837C3.85809 7.52539 4.46841 6.90774 5.23227 6.45432C5.99612 6.0009 6.82147 5.76984 7.7103 5.75506C8.19664 5.75506 8.83441 5.9055 9.62696 6.20115C10.4173 6.4978 10.9247 6.64824 11.1472 6.64824C11.3136 6.64824 11.8773 6.47233 12.8329 6.12165C13.7367 5.79643 14.4994 5.66177 15.1243 5.71481C16.8175 5.85146 18.0895 6.51892 18.9355 7.72141C17.4212 8.63893 16.6721 9.92404 16.687 11.5726C16.7007 12.8567 17.1665 13.9253 18.0821 14.7738C18.497 15.1676 18.9603 15.4719 19.4759 15.6881C19.3641 16.0123 19.246 16.3228 19.1206 16.621ZM15.2373 1.34012C15.2373 2.3466 14.8696 3.28635 14.1367 4.15617C13.2522 5.19021 12.1824 5.78773 11.0223 5.69345C11.0075 5.5727 10.9989 5.44562 10.9989 5.31208C10.9989 4.34586 11.4195 3.31181 12.1665 2.46634C12.5394 2.03826 13.0137 1.68232 13.5889 1.39838C14.1628 1.11868 14.7056 0.963996 15.2162 0.937508C15.2311 1.07206 15.2373 1.20662 15.2373 1.34011V1.34012Z" fill="black"/>
</g>
<defs>
<clipPath id="clip0_80_12557">
<rect width="21" height="21" fill="white" transform="translate(0.5 0.5)"/>
</clipPath>
</defs>
</svg>
