<svg width="25" height="24" viewBox="0 0 25 24" fill="none" xmlns="http://www.w3.org/2000/svg">
<mask id="mask0_116_14050" style="mask-type:alpha" maskUnits="userSpaceOnUse" x="0" y="0" width="25" height="24">
<rect x="0.5" width="24" height="24" fill="#D9D9D9"/>
</mask>
<g mask="url(#mask0_116_14050)">
<path d="M5.5 21C4.95 21 4.47917 20.8042 4.0875 20.4125C3.69583 20.0208 3.5 19.55 3.5 19V5C3.5 4.45 3.69583 3.97917 4.0875 3.5875C4.47917 3.19583 4.95 3 5.5 3H13.5C13.7833 3 14.0208 3.09583 14.2125 3.2875C14.4042 3.47917 14.5 3.71667 14.5 4C14.5 4.28333 14.4042 4.52083 14.2125 4.7125C14.0208 4.90417 13.7833 5 13.5 5H5.5V19H19.5V11C19.5 10.7167 19.5958 10.4792 19.7875 10.2875C19.9792 10.0958 20.2167 10 20.5 10C20.7833 10 21.0208 10.0958 21.2125 10.2875C21.4042 10.4792 21.5 10.7167 21.5 11V19C21.5 19.55 21.3042 20.0208 20.9125 20.4125C20.5208 20.8042 20.05 21 19.5 21H5.5ZM17.5 7H16.5C16.2167 7 15.9792 6.90417 15.7875 6.7125C15.5958 6.52083 15.5 6.28333 15.5 6C15.5 5.71667 15.5958 5.47917 15.7875 5.2875C15.9792 5.09583 16.2167 5 16.5 5H17.5V4C17.5 3.71667 17.5958 3.47917 17.7875 3.2875C17.9792 3.09583 18.2167 3 18.5 3C18.7833 3 19.0208 3.09583 19.2125 3.2875C19.4042 3.47917 19.5 3.71667 19.5 4V5H20.5C20.7833 5 21.0208 5.09583 21.2125 5.2875C21.4042 5.47917 21.5 5.71667 21.5 6C21.5 6.28333 21.4042 6.52083 21.2125 6.7125C21.0208 6.90417 20.7833 7 20.5 7H19.5V8C19.5 8.28333 19.4042 8.52083 19.2125 8.7125C19.0208 8.90417 18.7833 9 18.5 9C18.2167 9 17.9792 8.90417 17.7875 8.7125C17.5958 8.52083 17.5 8.28333 17.5 8V7ZM11.75 16L9.9 13.525C9.8 13.3917 9.66667 13.325 9.5 13.325C9.33333 13.325 9.2 13.3917 9.1 13.525L7.1 16.2C6.96667 16.3667 6.95 16.5417 7.05 16.725C7.15 16.9083 7.3 17 7.5 17H17.5C17.7 17 17.85 16.9083 17.95 16.725C18.05 16.5417 18.0333 16.3667 17.9 16.2L15.15 12.525C15.05 12.3917 14.9167 12.325 14.75 12.325C14.5833 12.325 14.45 12.3917 14.35 12.525L11.75 16Z" fill="#3DDB42"/>
</g>
</svg>
