<svg width="99" height="19" viewBox="0 0 99 19" fill="none" xmlns="http://www.w3.org/2000/svg">
<path d="M2.32662 15C1.57996 15 1.04662 14.8533 0.726624 14.56C0.406624 14.2667 0.246624 13.8467 0.246624 13.3C0.246624 13.0333 0.266624 12.58 0.306624 11.94C0.346624 11.2867 0.399957 10.5467 0.466624 9.72C0.53329 8.89333 0.599957 8.02 0.666624 7.1C0.73329 6.18 0.799957 5.31333 0.866624 4.5C0.93329 3.68667 0.986624 2.97333 1.02662 2.36C1.06662 1.74667 1.08662 1.32667 1.08662 1.1C1.08662 0.899999 1.19329 0.799999 1.40662 0.799999H2.50662C3.31996 0.799999 3.86662 0.973333 4.14662 1.32C4.42662 1.66667 4.56662 2.18 4.56662 2.86C4.56662 2.92667 4.55329 3.14 4.52662 3.5C4.51329 3.86 4.48662 4.31333 4.44662 4.86C4.40662 5.40667 4.35996 6.02 4.30662 6.7C4.26662 7.36667 4.21996 8.05333 4.16662 8.76C4.12662 9.46667 4.07996 10.16 4.02662 10.84C3.98662 11.5067 3.94662 12.1133 3.90662 12.66C3.86662 13.2067 3.83329 13.6667 3.80662 14.04C3.77996 14.4 3.75996 14.62 3.74662 14.7C3.73329 14.8067 3.70662 14.8867 3.66662 14.94C3.62662 14.98 3.54662 15 3.42662 15H2.32662ZM16.3566 12.64C16.0232 13.24 15.6166 13.6867 15.1366 13.98C14.6566 14.26 14.0566 14.4 13.3366 14.4C12.7899 14.4 12.2899 14.3133 11.8366 14.14C11.3832 13.9667 10.9966 13.6933 10.6766 13.32C10.3566 12.9467 10.1032 12.48 9.91656 11.92C9.74323 11.3467 9.65656 10.6667 9.65656 9.88C9.65656 9.24 9.72323 8.56667 9.85656 7.86C9.98989 7.14 10.2299 6.48 10.5766 5.88C10.9366 5.28 11.4232 4.78667 12.0366 4.4C12.6499 4 13.4366 3.8 14.3966 3.8C14.7966 3.8 15.1366 3.84667 15.4166 3.94C15.7099 4.02 15.9566 4.13333 16.1566 4.28C16.3699 4.42667 16.5366 4.6 16.6566 4.8C16.7899 5 16.8899 5.21333 16.9566 5.44C16.9566 5.45333 16.9566 5.40667 16.9566 5.3C16.9699 5.18 16.9832 5.04667 16.9966 4.9C17.0099 4.75333 17.0166 4.61333 17.0166 4.48C17.0299 4.33333 17.0366 4.24 17.0366 4.2C17.0499 4.06667 17.1366 4 17.2966 4H18.2166C18.9099 4 19.4099 4.14667 19.7166 4.44C20.0366 4.72 20.1966 5.26 20.1966 6.06C20.1966 6.16667 20.1899 6.41333 20.1766 6.8C20.1632 7.17333 20.1366 7.62667 20.0966 8.16C20.0699 8.69333 20.0299 9.28667 19.9766 9.94C19.9232 10.58 19.8632 11.2267 19.7966 11.88C19.7299 12.5333 19.6566 13.16 19.5766 13.76C19.4966 14.36 19.4099 14.8867 19.3166 15.34C19.2232 15.7933 19.0632 16.2333 18.8366 16.66C18.6099 17.0867 18.2899 17.4667 17.8766 17.8C17.4632 18.1333 16.9299 18.4 16.2766 18.6C15.6366 18.8 14.8499 18.9 13.9166 18.9C13.2099 18.9 12.5899 18.8333 12.0566 18.7C11.5366 18.5667 11.1032 18.3867 10.7566 18.16C10.4099 17.9467 10.1432 17.7 9.95656 17.42C9.78323 17.14 9.69656 16.86 9.69656 16.58C9.69656 16.3267 9.74989 16.1067 9.85656 15.92C9.96323 15.7333 10.1032 15.58 10.2766 15.46C10.4499 15.34 10.6366 15.2467 10.8366 15.18C11.0499 15.1267 11.2499 15.1 11.4366 15.1C11.6632 15.1 11.8299 15.1667 11.9366 15.3C12.0432 15.4333 12.1632 15.58 12.2966 15.74C12.4299 15.9133 12.6166 16.0667 12.8566 16.2C13.0966 16.3333 13.4699 16.4 13.9766 16.4C14.8566 16.4 15.4699 16.0733 15.8166 15.42C16.1766 14.78 16.3566 13.8533 16.3566 12.64ZM14.6766 11.74C15.1566 11.74 15.5299 11.6267 15.7966 11.4C16.0766 11.1733 16.2899 10.9 16.4366 10.58C16.5832 10.26 16.6766 9.92667 16.7166 9.58C16.7566 9.23333 16.7766 8.93333 16.7766 8.68C16.7766 7.88 16.6499 7.31333 16.3966 6.98C16.1566 6.63333 15.7899 6.46 15.2966 6.46C14.8032 6.46 14.4166 6.59333 14.1366 6.86C13.8566 7.12667 13.6432 7.44667 13.4966 7.82C13.3632 8.18 13.2766 8.54667 13.2366 8.92C13.1966 9.28 13.1766 9.56 13.1766 9.76C13.1766 10.4267 13.2899 10.9267 13.5166 11.26C13.7432 11.58 14.1299 11.74 14.6766 11.74ZM26.037 15.2C25.117 15.2 24.3503 15.0733 23.737 14.82C23.137 14.5533 22.657 14.1933 22.297 13.74C21.937 13.2867 21.6837 12.76 21.537 12.16C21.3903 11.5467 21.317 10.8933 21.317 10.2C21.317 9.4 21.4103 8.62 21.597 7.86C21.797 7.08667 22.1303 6.4 22.597 5.8C23.0637 5.2 23.677 4.72 24.437 4.36C25.2103 3.98667 26.1703 3.8 27.317 3.8C28.997 3.8 30.197 4.21333 30.917 5.04C31.6503 5.85333 32.017 7 32.017 8.48C32.017 8.89333 31.9837 9.35333 31.917 9.86C31.8637 10.3533 31.7503 10.8467 31.577 11.34C31.417 11.8333 31.1903 12.3133 30.897 12.78C30.617 13.2467 30.257 13.66 29.817 14.02C29.377 14.38 28.8437 14.6667 28.217 14.88C27.6037 15.0933 26.877 15.2 26.037 15.2ZM26.977 6.46C26.4703 6.46 26.0637 6.59333 25.757 6.86C25.4637 7.11333 25.237 7.42667 25.077 7.8C24.9303 8.16 24.8303 8.54667 24.777 8.96C24.737 9.36 24.717 9.7 24.717 9.98C24.717 10.86 24.857 11.5067 25.137 11.92C25.417 12.3333 25.817 12.54 26.337 12.54C26.8037 12.54 27.1837 12.3933 27.477 12.1C27.7837 11.8067 28.017 11.4533 28.177 11.04C28.3503 10.6267 28.4637 10.1933 28.517 9.74C28.5837 9.28667 28.617 8.90667 28.617 8.6C28.617 7.93333 28.4903 7.41333 28.237 7.04C27.997 6.65333 27.577 6.46 26.977 6.46ZM40.451 11.4C40.411 12.0133 40.3643 12.6 40.311 13.16C40.2577 13.7067 40.2177 14.1867 40.191 14.6C40.1777 14.76 40.1443 14.8667 40.091 14.92C40.0377 14.9733 39.9243 15 39.751 15H39.031C38.6177 15 38.2777 14.96 38.011 14.88C37.7577 14.7867 37.551 14.66 37.391 14.5C37.2443 14.34 37.1377 14.1467 37.071 13.92C37.0177 13.68 36.991 13.4067 36.991 13.1C36.991 12.9 36.9977 12.62 37.011 12.26C37.0377 11.8867 37.0777 11.38 37.131 10.74C37.1843 10.0867 37.2443 9.26667 37.311 8.28C37.391 7.28 37.4843 6.04667 37.591 4.58C37.6043 4.28667 37.6377 4.11333 37.691 4.06C37.731 4.02 37.8377 4 38.011 4H38.791C39.191 4 39.5177 4.04667 39.771 4.14C40.0243 4.23333 40.231 4.35333 40.391 4.5C40.551 4.64667 40.6643 4.82 40.731 5.02C40.7977 5.22 40.8377 5.42667 40.851 5.64C41.2377 4.92 41.6777 4.43333 42.171 4.18C42.6643 3.92667 43.2443 3.8 43.911 3.8C44.271 3.8 44.6177 3.83333 44.951 3.9C45.2843 3.96667 45.5843 4.08 45.851 4.24C46.1177 4.4 46.3443 4.61333 46.531 4.88C46.7177 5.13333 46.851 5.46 46.931 5.86C47.3443 5.08667 47.7977 4.55333 48.291 4.26C48.7843 3.95333 49.4043 3.8 50.151 3.8C50.5643 3.8 50.9577 3.84667 51.331 3.94C51.7177 4.02 52.051 4.16667 52.331 4.38C52.611 4.59333 52.831 4.88667 52.991 5.26C53.1643 5.62 53.251 6.07333 53.251 6.62C53.251 7.03333 53.231 7.54 53.191 8.14C53.151 8.74 53.1043 9.39333 53.051 10.1C52.9977 10.7933 52.9377 11.5133 52.871 12.26C52.8043 12.9933 52.751 13.7 52.711 14.38C52.6977 14.5267 52.6843 14.64 52.671 14.72C52.6577 14.8 52.631 14.86 52.591 14.9C52.5643 14.94 52.5177 14.9667 52.451 14.98C52.3843 14.9933 52.291 15 52.171 15H51.531C51.1043 15 50.7577 14.96 50.491 14.88C50.2243 14.8 50.0177 14.6867 49.871 14.54C49.7243 14.3933 49.6177 14.2133 49.551 14C49.4977 13.7733 49.471 13.52 49.471 13.24C49.471 13.0667 49.4777 12.82 49.491 12.5C49.5177 12.18 49.5443 11.8333 49.571 11.46C49.611 11.0867 49.6443 10.7 49.671 10.3C49.711 9.9 49.7443 9.53333 49.771 9.2C49.811 8.85333 49.8377 8.55333 49.851 8.3C49.8777 8.04667 49.891 7.88 49.891 7.8C49.891 7.45333 49.8177 7.14667 49.671 6.88C49.5377 6.61333 49.271 6.48 48.871 6.48C48.5243 6.48 48.2243 6.59333 47.971 6.82C47.7177 7.04667 47.5043 7.36 47.331 7.76C47.1577 8.16 47.0177 8.63333 46.911 9.18C46.8043 9.72667 46.731 10.32 46.691 10.96C46.6643 11.3733 46.631 11.8467 46.591 12.38C46.551 12.9133 46.5043 13.58 46.451 14.38C46.4377 14.5267 46.4243 14.64 46.411 14.72C46.3977 14.8 46.371 14.86 46.331 14.9C46.3043 14.94 46.2577 14.9667 46.191 14.98C46.1243 14.9933 46.031 15 45.911 15H45.271C44.8443 15 44.4977 14.96 44.231 14.88C43.9643 14.8 43.7577 14.6867 43.611 14.54C43.4643 14.3933 43.3577 14.2133 43.291 14C43.2377 13.7733 43.211 13.52 43.211 13.24C43.211 12.9733 43.231 12.5867 43.271 12.08C43.3243 11.56 43.371 11.0267 43.411 10.48C43.4643 9.92 43.511 9.39333 43.551 8.9C43.6043 8.39333 43.631 8.02667 43.631 7.8C43.631 7.45333 43.5577 7.14667 43.411 6.88C43.2777 6.61333 43.011 6.48 42.611 6.48C42.251 6.48 41.9443 6.61333 41.691 6.88C41.4377 7.14667 41.2243 7.50667 41.051 7.96C40.891 8.4 40.7577 8.92 40.651 9.52C40.5577 10.12 40.491 10.7467 40.451 11.4ZM59.1099 15.2C58.1899 15.2 57.4232 15.0733 56.8099 14.82C56.2099 14.5533 55.7299 14.1933 55.3699 13.74C55.0099 13.2867 54.7565 12.76 54.6099 12.16C54.4632 11.5467 54.3899 10.8933 54.3899 10.2C54.3899 9.4 54.4832 8.62 54.6699 7.86C54.8699 7.08667 55.2032 6.4 55.6699 5.8C56.1365 5.2 56.7499 4.72 57.5099 4.36C58.2832 3.98667 59.2432 3.8 60.3899 3.8C62.0699 3.8 63.2699 4.21333 63.9899 5.04C64.7232 5.85333 65.0899 7 65.0899 8.48C65.0899 8.89333 65.0565 9.35333 64.9899 9.86C64.9365 10.3533 64.8232 10.8467 64.6499 11.34C64.4899 11.8333 64.2632 12.3133 63.9699 12.78C63.6899 13.2467 63.3299 13.66 62.8899 14.02C62.4499 14.38 61.9165 14.6667 61.2899 14.88C60.6765 15.0933 59.9499 15.2 59.1099 15.2ZM60.0499 6.46C59.5432 6.46 59.1365 6.59333 58.8299 6.86C58.5365 7.11333 58.3099 7.42667 58.1499 7.8C58.0032 8.16 57.9032 8.54667 57.8499 8.96C57.8099 9.36 57.7899 9.7 57.7899 9.98C57.7899 10.86 57.9299 11.5067 58.2099 11.92C58.4899 12.3333 58.8899 12.54 59.4099 12.54C59.8765 12.54 60.2565 12.3933 60.5499 12.1C60.8565 11.8067 61.0899 11.4533 61.2499 11.04C61.4232 10.6267 61.5365 10.1933 61.5899 9.74C61.6565 9.28667 61.6899 8.90667 61.6899 8.6C61.6899 7.93333 61.5632 7.41333 61.3099 7.04C61.0699 6.65333 60.6499 6.46 60.0499 6.46ZM72.995 13.24C72.995 12.9467 73.015 12.5667 73.055 12.1C73.1083 11.62 73.155 11.12 73.195 10.6C73.2483 10.0667 73.295 9.55333 73.335 9.06C73.3883 8.56667 73.415 8.15333 73.415 7.82C73.415 7.47333 73.3283 7.16667 73.155 6.9C72.995 6.62 72.675 6.48 72.195 6.48C71.7283 6.48 71.3417 6.59333 71.035 6.82C70.7283 7.04667 70.4683 7.46 70.255 8.06C70.055 8.66 69.8883 9.48667 69.755 10.54C69.6217 11.5933 69.495 12.9467 69.375 14.6C69.3617 14.76 69.3283 14.8667 69.275 14.92C69.2217 14.9733 69.1083 15 68.935 15H68.215C67.8017 15 67.4617 14.96 67.195 14.88C66.9417 14.7867 66.735 14.66 66.575 14.5C66.4283 14.34 66.3217 14.1467 66.255 13.92C66.2017 13.68 66.175 13.4067 66.175 13.1C66.175 12.9 66.1817 12.62 66.195 12.26C66.2217 11.8867 66.2617 11.38 66.315 10.74C66.3683 10.0867 66.4283 9.26667 66.495 8.28C66.575 7.28 66.6683 6.04667 66.775 4.58C66.7883 4.28667 66.8217 4.11333 66.875 4.06C66.915 4.02 67.0217 4 67.195 4H67.975C68.375 4 68.7017 4.04667 68.955 4.14C69.2217 4.23333 69.435 4.36 69.595 4.52C69.755 4.66667 69.8683 4.84667 69.935 5.06C70.0017 5.26 70.0417 5.46667 70.055 5.68C70.4683 4.97333 70.9417 4.48667 71.475 4.22C72.0083 3.94 72.675 3.8 73.475 3.8C74.035 3.8 74.5217 3.86 74.935 3.98C75.3483 4.1 75.6883 4.30667 75.955 4.6C76.235 4.88 76.4417 5.25333 76.575 5.72C76.7083 6.17333 76.775 6.74 76.775 7.42C76.775 7.63333 76.7617 7.94 76.735 8.34C76.7083 8.74 76.675 9.18 76.635 9.66C76.595 10.1267 76.5483 10.62 76.495 11.14C76.455 11.6467 76.415 12.12 76.375 12.56C76.335 13 76.3017 13.3867 76.275 13.72C76.2483 14.0533 76.235 14.2733 76.235 14.38C76.235 14.6733 76.2017 14.8533 76.135 14.92C76.0683 14.9733 75.9217 15 75.695 15H75.055C74.6283 15 74.2817 14.96 74.015 14.88C73.7483 14.8 73.5417 14.6867 73.395 14.54C73.2483 14.3933 73.1417 14.2133 73.075 14C73.0217 13.7733 72.995 13.52 72.995 13.24ZM82.7698 15.2C82.1831 15.2 81.5965 15.1267 81.0098 14.98C80.4365 14.8333 79.9165 14.58 79.4498 14.22C78.9965 13.86 78.6231 13.38 78.3298 12.78C78.0365 12.18 77.8898 11.4267 77.8898 10.52C77.8898 10.1867 77.9165 9.78667 77.9698 9.32C78.0231 8.85333 78.1231 8.37333 78.2698 7.88C78.4298 7.38667 78.6431 6.9 78.9098 6.42C79.1898 5.92667 79.5498 5.48667 79.9898 5.1C80.4298 4.71333 80.9631 4.4 81.5898 4.16C82.2165 3.92 82.9631 3.8 83.8298 3.8C84.5231 3.8 85.1098 3.88 85.5898 4.04C86.0698 4.2 86.4565 4.42 86.7498 4.7C87.0431 4.96667 87.2565 5.28 87.3898 5.64C87.5231 6 87.5898 6.38667 87.5898 6.8C87.5898 7.41333 87.4631 7.93333 87.2098 8.36C86.9698 8.78667 86.6498 9.14667 86.2498 9.44C85.8631 9.72 85.4298 9.94 84.9498 10.1C84.4698 10.26 83.9965 10.3867 83.5298 10.48C83.0631 10.56 82.6298 10.6133 82.2298 10.64C81.8431 10.6533 81.5431 10.66 81.3298 10.66C81.3298 10.9133 81.3631 11.1667 81.4298 11.42C81.5098 11.66 81.6231 11.8733 81.7698 12.06C81.9165 12.2467 82.1098 12.4 82.3498 12.52C82.5898 12.64 82.8831 12.7 83.2298 12.7C83.5765 12.7 83.8431 12.6467 84.0298 12.54C84.2298 12.42 84.3898 12.2933 84.5098 12.16C84.6298 12.0133 84.7298 11.8867 84.8098 11.78C84.9031 11.66 85.0231 11.6 85.1698 11.6C85.2365 11.6 85.3498 11.62 85.5098 11.66C85.6831 11.6867 85.8565 11.7533 86.0298 11.86C86.2031 11.9667 86.3565 12.1133 86.4898 12.3C86.6231 12.4867 86.6898 12.7267 86.6898 13.02C86.6898 13.4067 86.5698 13.74 86.3298 14.02C86.0898 14.3 85.7765 14.5267 85.3898 14.7C85.0165 14.8733 84.5965 15 84.1298 15.08C83.6631 15.16 83.2098 15.2 82.7698 15.2ZM83.1498 6.46C82.8565 6.46 82.6031 6.54667 82.3898 6.72C82.1898 6.88 82.0165 7.08667 81.8698 7.34C81.7365 7.59333 81.6298 7.87333 81.5498 8.18C81.4831 8.48667 81.4298 8.78 81.3898 9.06C82.2165 9.04667 82.8831 8.90667 83.3898 8.64C83.9098 8.37333 84.1698 7.99333 84.1698 7.5C84.1698 7.23333 84.0831 6.99333 83.9098 6.78C83.7498 6.56667 83.4965 6.46 83.1498 6.46ZM92.2063 5.84C92.2063 6.14667 92.1863 6.51333 92.1463 6.94C92.1063 7.35333 92.0597 7.77333 92.0063 8.2C91.9663 8.61333 91.9263 9.00667 91.8863 9.38C91.8463 9.74 91.8263 10.02 91.8263 10.22C91.8263 10.7267 91.9463 11.1067 92.1863 11.36C92.4397 11.6 92.7463 11.72 93.1063 11.72C93.733 11.72 94.233 11.3933 94.6063 10.74C94.9797 10.0867 95.213 9.22 95.3063 8.14L95.6263 4.4C95.6397 4.25333 95.6863 4.15333 95.7663 4.1C95.8597 4.03333 95.9597 4 96.0663 4H96.7863C97.0663 4 97.3263 4.02667 97.5663 4.08C97.8197 4.12 98.0397 4.20667 98.2263 4.34C98.413 4.46 98.5597 4.62667 98.6663 4.84C98.773 5.05333 98.8263 5.32667 98.8263 5.66C98.8263 5.79333 98.813 6.04667 98.7863 6.42C98.773 6.78 98.7397 7.30667 98.6863 8C98.6463 8.68 98.5863 9.54667 98.5063 10.6C98.4263 11.64 98.333 12.9133 98.2263 14.42C98.1597 15.3 97.9597 16.0267 97.6263 16.6C97.3063 17.1867 96.8997 17.6467 96.4063 17.98C95.913 18.3267 95.3597 18.5667 94.7463 18.7C94.133 18.8333 93.5063 18.9 92.8663 18.9C92.1863 18.9 91.5597 18.84 90.9863 18.72C90.4263 18.6 89.9397 18.4333 89.5263 18.22C89.113 18.0067 88.7863 17.76 88.5463 17.48C88.3197 17.2 88.2063 16.9 88.2063 16.58C88.2063 16.3267 88.2597 16.1067 88.3663 15.92C88.4863 15.7333 88.6397 15.58 88.8263 15.46C89.013 15.34 89.2263 15.2467 89.4663 15.18C89.7197 15.1267 89.9797 15.1 90.2463 15.1C90.3797 15.1 90.473 15.1667 90.5263 15.3C90.593 15.4333 90.6863 15.58 90.8063 15.74C90.9397 15.9133 91.1463 16.0667 91.4263 16.2C91.7063 16.3333 92.1263 16.4 92.6863 16.4C93.1797 16.4 93.5797 16.28 93.8863 16.04C94.193 15.8 94.4263 15.4933 94.5863 15.12C94.7597 14.7467 94.873 14.34 94.9263 13.9C94.9797 13.46 95.0063 13.04 95.0063 12.64C94.793 13.0133 94.553 13.32 94.2863 13.56C94.033 13.7867 93.7663 13.9667 93.4863 14.1C93.2063 14.22 92.9263 14.3 92.6463 14.34C92.3663 14.38 92.0997 14.4 91.8463 14.4C91.353 14.4 90.8997 14.3333 90.4863 14.2C90.0863 14.0667 89.7397 13.8533 89.4463 13.56C89.153 13.2533 88.9263 12.86 88.7663 12.38C88.6063 11.9 88.5263 11.32 88.5263 10.64C88.5263 10.3867 88.5397 10.0533 88.5663 9.64C88.593 9.21333 88.6263 8.74 88.6663 8.22C88.7063 7.68667 88.7463 7.11333 88.7863 6.5C88.8397 5.88667 88.893 5.26 88.9463 4.62C88.973 4.20667 89.1597 4 89.5063 4H90.1463C90.573 4 90.9197 4.04 91.1863 4.12C91.453 4.2 91.6597 4.32 91.8063 4.48C91.9663 4.62667 92.073 4.82 92.1263 5.06C92.1797 5.28667 92.2063 5.54667 92.2063 5.84Z" fill="#3DDB42"/>
</svg>
