<svg width="29" height="30" viewBox="0 0 29 30" fill="none" xmlns="http://www.w3.org/2000/svg">
<path d="M23.0753 25.5H4.01478C3.67697 25.5 3.39763 25.3938 3.17675 25.1813C2.95587 24.9688 2.84543 24.7 2.84543 24.375C2.84543 24.05 2.95587 23.7812 3.17675 23.5688C3.39763 23.3563 3.67697 23.25 4.01478 23.25H5.96371V11.85C5.96371 11.025 6.06765 10.2125 6.27554 9.4125C6.48342 8.6125 6.80824 7.85 7.25 7.125L8.92607 11.85L0.350806 3.6C0.116935 3.375 0 3.1125 0 2.8125C0 2.5125 0.116935 2.25 0.350806 2.025C0.584677 1.8 0.857527 1.6875 1.16935 1.6875C1.48118 1.6875 1.75403 1.8 1.9879 2.025L28.6492 27.7125C28.8831 27.9375 29 28.2 29 28.5C29 28.8 28.8831 29.0625 28.6492 29.2875C28.4153 29.5125 28.1425 29.625 27.8306 29.625C27.5188 29.625 27.246 29.5125 27.0121 29.2875L23.0753 25.5ZM24.6734 20.6625L8.6922 5.325C9.28988 4.75 9.94601 4.275 10.6606 3.9C11.3752 3.525 12.1483 3.25 12.9798 3.075V2.25C12.9798 1.625 13.2072 1.09375 13.662 0.65625C14.1167 0.21875 14.6689 0 15.3185 0C15.9682 0 16.5204 0.21875 16.9751 0.65625C17.4299 1.09375 17.6573 1.625 17.6573 2.25V3.075C19.7621 3.5 21.4577 4.54375 22.744 6.20625C24.0302 7.86875 24.6734 9.75 24.6734 11.85V20.6625ZM15.3185 30C14.461 30 13.7269 29.7063 13.1163 29.1188C12.5056 28.5312 12.2003 27.825 12.2003 27H18.4368C18.4368 27.825 18.1315 28.5312 17.5208 29.1188C16.9102 29.7063 16.1761 30 15.3185 30Z" fill="#1C1B1F"/>
</svg>
