<svg width="18" height="16" viewBox="0 0 18 16" fill="none" xmlns="http://www.w3.org/2000/svg">
<path d="M8.57143 7.57895L1.71429 3.36842V11.7895H9.42857V13.4737H1.71429C1.24286 13.4737 0.839286 13.3088 0.503571 12.9789C0.167857 12.6491 0 12.2526 0 11.7895V1.68421C0 1.22105 0.167857 0.824561 0.503571 0.494737C0.839286 0.164912 1.24286 0 1.71429 0H15.4286C15.9 0 16.3036 0.164912 16.6393 0.494737C16.975 0.824561 17.1429 1.22105 17.1429 1.68421V7.57895H15.4286V3.36842L8.57143 7.57895ZM8.57143 5.89474L15.4286 1.68421H1.71429L8.57143 5.89474ZM14.5714 16L13.3714 14.8211L14.7214 13.4737H11.1429V11.7895H14.7214L13.35 10.4421L14.5714 9.26316L18 12.6316L14.5714 16ZM1.71429 3.36842V12.6316V7.57895V7.64211V1.68421V3.36842Z" fill="#171717"/>
</svg>
